<?xml version="1.0" standalone="no"?><!DOCTYPE svg PUBLIC "-//W3C//DTD SVG 1.1//EN" "http://www.w3.org/Graphics/SVG/1.1/DTD/svg11.dtd"><svg width="600" height="800" version="1.1" xmlns="http://www.w3.org/2000/svg" xmlns:xlink="http://www.w3.org/1999/xlink"><defs xmlns="http://www.w3.org/1999/xhtml"><style type="text/css"><![CDATA[]]></style></defs><rect x="0" y="0" width="600" height="800" fill="rgb(40, 180, 99)" fill-opacity="0.5" stroke="none"/><g transform="translate(420 80)"><text x="30" y="10" fill="rgb(249, 244, 100)" stroke="none" text-anchor="middle" font-family="Helvetica" font-weight="bold" font-size="32">The Phil Concert</text><text x="55" y="40" fill="rgb(255, 255, 255)" fill-opacity="0.8" stroke="none" text-anchor="middle" font-family="Helvetica" font-weight="normal" font-size="22">Central Park@8pm</text></g><g transform="translate(0 586.6666666666666)"><rect x="0" y="0" width="28" height="100" fill="rgb(40, 180, 99)" fill-opacity="0.7" stroke="none"/><rect x="33" y="0" width="28" height="100" fill="rgb(40, 180, 99)" fill-opacity="0.7" stroke="none"/><rect x="66" y="0" width="28" height="100" fill="rgb(40, 180, 99)" fill-opacity="0.7" stroke="none"/><rect x="99" y="0" width="28" height="100" fill="rgb(40, 180, 99)" fill-opacity="0.7" stroke="none"/><rect x="132" y="0" width="28" height="100" fill="rgb(40, 180, 99)" fill-opacity="0.7" stroke="none"/><rect x="165" y="0" width="28" height="100" fill="rgb(40, 180, 99)" fill-opacity="0.7" stroke="none"/><rect x="198" y="0" width="28" height="100" fill="rgb(40, 180, 99)" fill-opacity="0.7" stroke="none"/><rect x="231" y="0" width="28" height="100" fill="rgb(40, 180, 99)" fill-opacity="0.7" stroke="none"/><rect x="264" y="0" width="28" height="100" fill="rgb(40, 180, 99)" fill-opacity="0.7" stroke="none"/><rect x="297" y="0" width="28" height="100" fill="rgb(40, 180, 99)" fill-opacity="0.7" stroke="none"/><rect x="330" y="0" width="28" height="100" fill="rgb(40, 180, 99)" fill-opacity="0.7" stroke="none"/><rect x="363" y="0" width="28" height="100" fill="rgb(40, 180, 99)" fill-opacity="0.7" stroke="none"/><rect x="396" y="0" width="28" height="100" fill="rgb(40, 180, 99)" fill-opacity="0.7" stroke="none"/><rect x="429" y="0" width="28" height="100" fill="rgb(40, 180, 99)" fill-opacity="0.7" stroke="none"/><rect x="462" y="0" width="28" height="100" fill="rgb(40, 180, 99)" fill-opacity="0.7" stroke="none"/><rect x="495" y="0" width="28" height="100" fill="rgb(40, 180, 99)" fill-opacity="0.7" stroke="none"/><rect x="528" y="0" width="28" height="100" fill="rgb(40, 180, 99)" fill-opacity="0.7" stroke="none"/><rect x="561" y="0" width="28" height="100" fill="rgb(40, 180, 99)" fill-opacity="0.7" stroke="none"/><rect x="594" y="0" width="28" height="100" fill="rgb(40, 180, 99)" fill-opacity="0.7" stroke="none"/><rect x="627" y="0" width="28" height="100" fill="rgb(40, 180, 99)" fill-opacity="0.7" stroke="none"/></g><g transform="translate(25 586.6666666666666)"><rect x="0" y="0" width="13" height="70" fill="rgb(32, 64, 33)" stroke="none"/><rect x="33" y="0" width="13" height="70" fill="rgb(32, 64, 33)" stroke="none"/><rect x="66" y="0" width="13" height="70" fill="rgb(40, 180, 99)" fill-opacity="0.5" stroke="none"/><rect x="99" y="0" width="13" height="70" fill="rgb(32, 64, 33)" stroke="none"/><rect x="132" y="0" width="13" height="70" fill="rgb(32, 64, 33)" stroke="none"/><rect x="165" y="0" width="13" height="70" fill="rgb(32, 64, 33)" stroke="none"/><rect x="198" y="0" width="13" height="70" fill="rgb(40, 180, 99)" fill-opacity="0.5" stroke="none"/><rect x="231" y="0" width="13" height="70" fill="rgb(32, 64, 33)" stroke="none"/><rect x="264" y="0" width="13" height="70" fill="rgb(32, 64, 33)" stroke="none"/><rect x="297" y="0" width="13" height="70" fill="rgb(40, 180, 99)" fill-opacity="0.5" stroke="none"/><rect x="330" y="0" width="13" height="70" fill="rgb(32, 64, 33)" stroke="none"/><rect x="363" y="0" width="13" height="70" fill="rgb(32, 64, 33)" stroke="none"/><rect x="396" y="0" width="13" height="70" fill="rgb(32, 64, 33)" stroke="none"/><rect x="429" y="0" width="13" height="70" fill="rgb(40, 180, 99)" fill-opacity="0.5" stroke="none"/><rect x="462" y="0" width="13" height="70" fill="rgb(32, 64, 33)" stroke="none"/><rect x="495" y="0" width="13" height="70" fill="rgb(32, 64, 33)" stroke="none"/><rect x="528" y="0" width="13" height="70" fill="rgb(40, 180, 99)" fill-opacity="0.5" stroke="none"/><rect x="561" y="0" width="13" height="70" fill="rgb(32, 64, 33)" stroke="none"/><rect x="594" y="0" width="13" height="70" fill="rgb(32, 64, 33)" stroke="none"/><rect x="627" y="0" width="13" height="70" fill="rgb(32, 64, 33)" stroke="none"/></g><g transform="translate(10 480)"><rect x="1.91746876996976" y="-20.405563785758474" width="35" height="2" fill="rgb(15, 69, 38)" stroke="none"/><rect x="0.8105735869048849" y="5.468663361817413" width="0.5" height="100" fill="rgb(15, 69, 38)" stroke="none"/><rect x="33.520036442144935" y="-1.677033110714241" width="35" height="2" fill="rgb(15, 69, 38)" stroke="none"/><rect x="34.22602684006878" y="-12.846928056704892" width="0.5" height="100" fill="rgb(15, 69, 38)" stroke="none"/><rect x="66.25342403117344" y="-19.617404829464334" width="35" height="2" fill="rgb(15, 69, 38)" stroke="none"/><rect x="66.8409135045193" y="8.287663472942512" width="0.5" height="100" fill="rgb(15, 69, 38)" stroke="none"/><rect x="100.79143366519224" y="-22.46371811207804" width="35" height="2" fill="rgb(15, 69, 38)" stroke="none"/><rect x="99.93850079968594" y="-14.706706903983168" width="0.5" height="100" fill="rgb(15, 69, 38)" stroke="none"/><rect x="132.32786562224757" y="-6.3073610311112205" width="35" height="2" fill="rgb(15, 69, 38)" stroke="none"/><rect x="133.55216089935269" y="2.2512350996764035" width="0.5" height="100" fill="rgb(15, 69, 38)" stroke="none"/><rect x="166.63757844451612" y="-7.241939468823787" width="35" height="2" fill="rgb(15, 69, 38)" stroke="none"/><rect x="166.09100846089586" y="-11.312022540724792" width="0.5" height="100" fill="rgb(15, 69, 38)" stroke="none"/><rect x="199.6149890467529" y="-10.171080906091111" width="35" height="2" fill="rgb(15, 69, 38)" stroke="none"/><rect x="199.60556225519105" y="-17.057884582149168" width="0.5" height="100" fill="rgb(15, 69, 38)" stroke="none"/><rect x="232.99402700904005" y="6.348947968228746" width="35" height="2" fill="rgb(15, 69, 38)" stroke="none"/><rect x="232.81879711236033" y="-8.738415572167561" width="0.5" height="100" fill="rgb(15, 69, 38)" stroke="none"/><rect x="264.92892716047965" y="-7.418871285549404" width="35" height="2" fill="rgb(15, 69, 38)" stroke="none"/><rect x="264.7247590262926" y="3.7607336135650655" width="0.5" height="100" fill="rgb(15, 69, 38)" stroke="none"/><rect x="297.08722935022155" y="-20.336445267180075" width="35" height="2" fill="rgb(15, 69, 38)" stroke="none"/><rect x="297.91488632389166" y="-9.3284719839971" width="0.5" height="100" fill="rgb(15, 69, 38)" stroke="none"/><rect x="330.35394929196036" y="-21.090696673938975" width="35" height="2" fill="rgb(15, 69, 38)" stroke="none"/><rect x="330.7286223563877" y="-23.14512701980629" width="0.5" height="100" fill="rgb(15, 69, 38)" stroke="none"/><rect x="364.7641639284643" y="-21.670560638187048" width="35" height="2" fill="rgb(15, 69, 38)" stroke="none"/><rect x="363.0376445757489" y="-6.3156629940228655" width="0.5" height="100" fill="rgb(15, 69, 38)" stroke="none"/><rect x="397.507874658453" y="-18.127181156944886" width="35" height="2" fill="rgb(15, 69, 38)" stroke="none"/><rect x="396.06904412295023" y="-18.200530302077464" width="0.5" height="100" fill="rgb(15, 69, 38)" stroke="none"/><rect x="429.20266263168173" y="-13.600993180765816" width="35" height="2" fill="rgb(15, 69, 38)" stroke="none"/><rect x="429.0333498962554" y="-0.06220045702471211" width="0.5" height="100" fill="rgb(15, 69, 38)" stroke="none"/><rect x="463.5004165271755" y="-24.091768148705118" width="35" height="2" fill="rgb(15, 69, 38)" stroke="none"/><rect x="462.3983800779391" y="-10.409912036615967" width="0.5" height="100" fill="rgb(15, 69, 38)" stroke="none"/><rect x="496.3050440152014" y="9.206856664397932" width="35" height="2" fill="rgb(15, 69, 38)" stroke="none"/><rect x="495.8226713786537" y="-19.02032444806686" width="0.5" height="100" fill="rgb(15, 69, 38)" stroke="none"/><rect x="528.2807459518391" y="-19.760536655048483" width="35" height="2" fill="rgb(15, 69, 38)" stroke="none"/><rect x="529.6744877902653" y="-19.030043210545852" width="0.5" height="100" fill="rgb(15, 69, 38)" stroke="none"/><rect x="562.339359130315" y="-11.558921895942165" width="35" height="2" fill="rgb(15, 69, 38)" stroke="none"/><rect x="562.1112432263259" y="8.585606280713954" width="0.5" height="100" fill="rgb(15, 69, 38)" stroke="none"/><rect x="594.7814796216966" y="4.774703354397936" width="35" height="2" fill="rgb(15, 69, 38)" stroke="none"/><rect x="594.2676648362743" y="-12.278592353861145" width="0.5" height="100" fill="rgb(15, 69, 38)" stroke="none"/><rect x="627.9083173996246" y="7.990738092227396" width="35" height="2" fill="rgb(15, 69, 38)" stroke="none"/><rect x="628.7558583326695" y="0.9524410940268133" width="0.5" height="100" fill="rgb(15, 69, 38)" stroke="none"/></g><polygon points="0 0 12 -13 4 172" transform="translate(398 423)" fill="rgb(15, 69, 38)" stroke="none"/><polygon points="0 0 -8 185 10 185" transform="translate(410 410)" fill="rgb(183, 249, 211)" stroke="none"/><polygon points="0 0 10 10 11 185" transform="translate(410 410)" fill="rgb(0, 0, 0)" stroke="none"/><line x1="410" y1="410" x2="410" y2="300" fill="rgb(0, 0, 0)" stroke="rgb(0, 0, 0)"/></svg>