<?xml version="1.0" standalone="no"?><!DOCTYPE svg PUBLIC "-//W3C//DTD SVG 1.1//EN" "http://www.w3.org/Graphics/SVG/1.1/DTD/svg11.dtd"><svg width="600" height="800" version="1.1" xmlns="http://www.w3.org/2000/svg" xmlns:xlink="http://www.w3.org/1999/xlink"><defs xmlns="http://www.w3.org/1999/xhtml"><style type="text/css"><![CDATA[]]></style></defs><rect x="0" y="0" width="600" height="800" fill="rgb(40, 180, 99)" fill-opacity="0.5" stroke="none"/><g transform="translate(120 100)"><text x="30" y="10" fill="rgb(249, 244, 100)" stroke="none" text-anchor="middle" font-family="Helvetica" font-weight="bold" font-size="32">The Phil Concert</text><text x="30" y="-20" fill="rgb(249, 244, 100)" stroke="none" text-anchor="middle" font-family="Helvetica" font-weight="bold" font-size="32">The Phil Concert</text><text x="30" y="-50" fill="rgb(249, 244, 100)" stroke="none" text-anchor="middle" font-family="Helvetica" font-weight="bold" font-size="32">The Phil Concert</text></g><g transform="translate(0 586.6666666666666)"><rect x="0" y="0" width="28" height="100" fill="rgb(40, 180, 99)" fill-opacity="0.7" stroke="none"/><rect x="33" y="0" width="28" height="100" fill="rgb(40, 180, 99)" fill-opacity="0.7" stroke="none"/><rect x="66" y="0" width="28" height="100" fill="rgb(40, 180, 99)" fill-opacity="0.7" stroke="none"/><rect x="99" y="0" width="28" height="100" fill="rgb(40, 180, 99)" fill-opacity="0.7" stroke="none"/><rect x="132" y="0" width="28" height="100" fill="rgb(40, 180, 99)" fill-opacity="0.7" stroke="none"/><rect x="165" y="0" width="28" height="100" fill="rgb(40, 180, 99)" fill-opacity="0.7" stroke="none"/><rect x="198" y="0" width="28" height="100" fill="rgb(40, 180, 99)" fill-opacity="0.7" stroke="none"/><rect x="231" y="0" width="28" height="100" fill="rgb(40, 180, 99)" fill-opacity="0.7" stroke="none"/><rect x="264" y="0" width="28" height="100" fill="rgb(40, 180, 99)" fill-opacity="0.7" stroke="none"/><rect x="297" y="0" width="28" height="100" fill="rgb(40, 180, 99)" fill-opacity="0.7" stroke="none"/><rect x="330" y="0" width="28" height="100" fill="rgb(40, 180, 99)" fill-opacity="0.7" stroke="none"/><rect x="363" y="0" width="28" height="100" fill="rgb(40, 180, 99)" fill-opacity="0.7" stroke="none"/><rect x="396" y="0" width="28" height="100" fill="rgb(40, 180, 99)" fill-opacity="0.7" stroke="none"/><rect x="429" y="0" width="28" height="100" fill="rgb(40, 180, 99)" fill-opacity="0.7" stroke="none"/><rect x="462" y="0" width="28" height="100" fill="rgb(40, 180, 99)" fill-opacity="0.7" stroke="none"/><rect x="495" y="0" width="28" height="100" fill="rgb(40, 180, 99)" fill-opacity="0.7" stroke="none"/><rect x="528" y="0" width="28" height="100" fill="rgb(40, 180, 99)" fill-opacity="0.7" stroke="none"/><rect x="561" y="0" width="28" height="100" fill="rgb(40, 180, 99)" fill-opacity="0.7" stroke="none"/><rect x="594" y="0" width="28" height="100" fill="rgb(40, 180, 99)" fill-opacity="0.7" stroke="none"/><rect x="627" y="0" width="28" height="100" fill="rgb(40, 180, 99)" fill-opacity="0.7" stroke="none"/></g><g transform="translate(25 586.6666666666666)"><rect x="0" y="0" width="13" height="70" fill="rgb(32, 64, 33)" stroke="none"/><rect x="33" y="0" width="13" height="70" fill="rgb(32, 64, 33)" stroke="none"/><rect x="66" y="0" width="13" height="70" fill="rgb(40, 180, 99)" fill-opacity="0.5" stroke="none"/><rect x="99" y="0" width="13" height="70" fill="rgb(32, 64, 33)" stroke="none"/><rect x="132" y="0" width="13" height="70" fill="rgb(32, 64, 33)" stroke="none"/><rect x="165" y="0" width="13" height="70" fill="rgb(32, 64, 33)" stroke="none"/><rect x="198" y="0" width="13" height="70" fill="rgb(40, 180, 99)" fill-opacity="0.5" stroke="none"/><rect x="231" y="0" width="13" height="70" fill="rgb(32, 64, 33)" stroke="none"/><rect x="264" y="0" width="13" height="70" fill="rgb(32, 64, 33)" stroke="none"/><rect x="297" y="0" width="13" height="70" fill="rgb(40, 180, 99)" fill-opacity="0.5" stroke="none"/><rect x="330" y="0" width="13" height="70" fill="rgb(32, 64, 33)" stroke="none"/><rect x="363" y="0" width="13" height="70" fill="rgb(32, 64, 33)" stroke="none"/><rect x="396" y="0" width="13" height="70" fill="rgb(32, 64, 33)" stroke="none"/><rect x="429" y="0" width="13" height="70" fill="rgb(40, 180, 99)" fill-opacity="0.5" stroke="none"/><rect x="462" y="0" width="13" height="70" fill="rgb(32, 64, 33)" stroke="none"/><rect x="495" y="0" width="13" height="70" fill="rgb(32, 64, 33)" stroke="none"/><rect x="528" y="0" width="13" height="70" fill="rgb(40, 180, 99)" fill-opacity="0.5" stroke="none"/><rect x="561" y="0" width="13" height="70" fill="rgb(32, 64, 33)" stroke="none"/><rect x="594" y="0" width="13" height="70" fill="rgb(32, 64, 33)" stroke="none"/><rect x="627" y="0" width="13" height="70" fill="rgb(32, 64, 33)" stroke="none"/></g><g transform="translate(10 480)"><rect x="1.8844455505117752" y="-12.07348267774223" width="35" height="2" fill="rgb(15, 69, 38)" stroke="none"/><rect x="1.6739839547668955" y="-22.656600176219907" width="0.5" height="100" fill="rgb(15, 69, 38)" stroke="none"/><rect x="33.44525718705329" y="-2.0356913270026062" width="35" height="2" fill="rgb(15, 69, 38)" stroke="none"/><rect x="34.07619756425514" y="-5.3425268950662925" width="0.5" height="100" fill="rgb(15, 69, 38)" stroke="none"/><rect x="66.00080511444705" y="-24.1377663568721" width="35" height="2" fill="rgb(15, 69, 38)" stroke="none"/><rect x="67.66034464681216" y="-24.75196281093914" width="0.5" height="100" fill="rgb(15, 69, 38)" stroke="none"/><rect x="100.38050520636462" y="-11.629036453370595" width="35" height="2" fill="rgb(15, 69, 38)" stroke="none"/><rect x="99.2884236097952" y="-2.6084938188316613" width="0.5" height="100" fill="rgb(15, 69, 38)" stroke="none"/><rect x="132.74434622995616" y="4.368024006940789" width="35" height="2" fill="rgb(15, 69, 38)" stroke="none"/><rect x="133.6240813940785" y="-23.731462668938473" width="0.5" height="100" fill="rgb(15, 69, 38)" stroke="none"/><rect x="165.04066902924194" y="-11.93858781149934" width="35" height="2" fill="rgb(15, 69, 38)" stroke="none"/><rect x="165.80396509724298" y="-14.9694123513631" width="0.5" height="100" fill="rgb(15, 69, 38)" stroke="none"/><rect x="198.4523348896985" y="-5.564315121450008" width="35" height="2" fill="rgb(15, 69, 38)" stroke="none"/><rect x="198.34306951930793" y="2.5669659588236193" width="0.5" height="100" fill="rgb(15, 69, 38)" stroke="none"/><rect x="232.57309953152372" y="-4.961694790480472" width="35" height="2" fill="rgb(15, 69, 38)" stroke="none"/><rect x="231.98166293537003" y="-24.268721202347287" width="0.5" height="100" fill="rgb(15, 69, 38)" stroke="none"/><rect x="265.4656459554816" y="-6.999443218522156" width="35" height="2" fill="rgb(15, 69, 38)" stroke="none"/><rect x="265.5070192943597" y="-22.81105760857433" width="0.5" height="100" fill="rgb(15, 69, 38)" stroke="none"/><rect x="297.32215244422946" y="-11.996974146826675" width="35" height="2" fill="rgb(15, 69, 38)" stroke="none"/><rect x="297.2539283873765" y="-8.298509787345179" width="0.5" height="100" fill="rgb(15, 69, 38)" stroke="none"/><rect x="330.61838673945783" y="-13.447242653920595" width="35" height="2" fill="rgb(15, 69, 38)" stroke="none"/><rect x="330.90247579520815" y="-4.8130414620269235" width="0.5" height="100" fill="rgb(15, 69, 38)" stroke="none"/><rect x="363.23293662413306" y="-9.338979962816008" width="35" height="2" fill="rgb(15, 69, 38)" stroke="none"/><rect x="363.5493538487127" y="-20.849761937145264" width="0.5" height="100" fill="rgb(15, 69, 38)" stroke="none"/><rect x="396.79348623219676" y="-3.3474458947868477" width="35" height="2" fill="rgb(15, 69, 38)" stroke="none"/><rect x="396.3746500197302" y="9.264355267567836" width="0.5" height="100" fill="rgb(15, 69, 38)" stroke="none"/><rect x="430.763218379619" y="-24.85825727194846" width="35" height="2" fill="rgb(15, 69, 38)" stroke="none"/><rect x="430.8880689346529" y="6.330857103916539" width="0.5" height="100" fill="rgb(15, 69, 38)" stroke="none"/><rect x="463.40048175559645" y="-4.705242746822982" width="35" height="2" fill="rgb(15, 69, 38)" stroke="none"/><rect x="462.33851512806285" y="-7.557143423435637" width="0.5" height="100" fill="rgb(15, 69, 38)" stroke="none"/><rect x="496.6420201125182" y="-19.421431795888672" width="35" height="2" fill="rgb(15, 69, 38)" stroke="none"/><rect x="496.35631694379396" y="2.1399240938382675" width="0.5" height="100" fill="rgb(15, 69, 38)" stroke="none"/><rect x="529.0993750274765" y="-16.40806185248079" width="35" height="2" fill="rgb(15, 69, 38)" stroke="none"/><rect x="528.9549675683279" y="-10.486512094399693" width="0.5" height="100" fill="rgb(15, 69, 38)" stroke="none"/><rect x="561.2133932509221" y="-23.27884128260489" width="35" height="2" fill="rgb(15, 69, 38)" stroke="none"/><rect x="561.7833982520564" y="-0.92234365118901" width="0.5" height="100" fill="rgb(15, 69, 38)" stroke="none"/><rect x="594.8212902250928" y="-17.59193452329699" width="35" height="2" fill="rgb(15, 69, 38)" stroke="none"/><rect x="595.2552195385433" y="-0.5864458473911682" width="0.5" height="100" fill="rgb(15, 69, 38)" stroke="none"/><rect x="628.0193615412859" y="-24.39757539859872" width="35" height="2" fill="rgb(15, 69, 38)" stroke="none"/><rect x="627.9378922094246" y="-22.517273204758833" width="0.5" height="100" fill="rgb(15, 69, 38)" stroke="none"/></g><polygon points="0 0 12 -13 4 172" transform="translate(398 423)" fill="rgb(15, 69, 38)" stroke="none"/><polygon points="0 0 -8 185 10 185" transform="translate(410 410)" fill="rgb(183, 249, 211)" stroke="none"/><polygon points="0 0 10 10 11 185" transform="translate(410 410)" fill="rgb(0, 0, 0)" stroke="none"/><line x1="410" y1="410" x2="410" y2="300" fill="rgb(0, 0, 0)" stroke="rgb(0, 0, 0)"/></svg>