<?xml version="1.0" standalone="no"?><!DOCTYPE svg PUBLIC "-//W3C//DTD SVG 1.1//EN" "http://www.w3.org/Graphics/SVG/1.1/DTD/svg11.dtd"><svg width="600" height="800" version="1.1" xmlns="http://www.w3.org/2000/svg" xmlns:xlink="http://www.w3.org/1999/xlink"><defs xmlns="http://www.w3.org/1999/xhtml"><style type="text/css"><![CDATA[]]></style></defs><rect x="0" y="0" width="600" height="800" fill="rgb(40, 180, 99)" stroke="none"/><g transform="translate(525 114.28571428571429)"><text x="30" y="10" transform="rotate(90)" fill="rgb(249, 244, 100)" stroke="none" text-anchor="middle" font-family="Helvetica" font-weight="bold" font-size="32">The Phil Concert</text><text x="30" y="-20" transform="rotate(90)" fill="rgb(249, 244, 100)" stroke="none" text-anchor="middle" font-family="Helvetica" font-weight="bold" font-size="32">The Phil Concert</text><text x="30" y="-50" transform="rotate(90)" fill="rgb(249, 244, 100)" stroke="none" text-anchor="middle" font-family="Helvetica" font-weight="bold" font-size="32">The Phil Concert</text></g><g transform="translate(0 586.6666666666666)"><rect x="0" y="0" width="30" height="100" fill="rgb(183, 249, 211)" stroke="none"/><rect x="33" y="0" width="30" height="100" fill="rgb(183, 249, 211)" stroke="none"/><rect x="66" y="0" width="30" height="100" fill="rgb(183, 249, 211)" stroke="none"/><rect x="99" y="0" width="30" height="100" fill="rgb(183, 249, 211)" stroke="none"/><rect x="132" y="0" width="30" height="100" fill="rgb(183, 249, 211)" stroke="none"/><rect x="165" y="0" width="30" height="100" fill="rgb(183, 249, 211)" stroke="none"/><rect x="198" y="0" width="30" height="100" fill="rgb(183, 249, 211)" stroke="none"/><rect x="231" y="0" width="30" height="100" fill="rgb(183, 249, 211)" stroke="none"/><rect x="264" y="0" width="30" height="100" fill="rgb(183, 249, 211)" stroke="none"/><rect x="297" y="0" width="30" height="100" fill="rgb(183, 249, 211)" stroke="none"/><rect x="330" y="0" width="30" height="100" fill="rgb(183, 249, 211)" stroke="none"/><rect x="363" y="0" width="30" height="100" fill="rgb(183, 249, 211)" stroke="none"/><rect x="396" y="0" width="30" height="100" fill="rgb(183, 249, 211)" stroke="none"/><rect x="429" y="0" width="30" height="100" fill="rgb(183, 249, 211)" stroke="none"/><rect x="462" y="0" width="30" height="100" fill="rgb(183, 249, 211)" stroke="none"/><rect x="495" y="0" width="30" height="100" fill="rgb(183, 249, 211)" stroke="none"/><rect x="528" y="0" width="30" height="100" fill="rgb(183, 249, 211)" stroke="none"/><rect x="561" y="0" width="30" height="100" fill="rgb(183, 249, 211)" stroke="none"/><rect x="594" y="0" width="30" height="100" fill="rgb(183, 249, 211)" stroke="none"/><rect x="627" y="0" width="30" height="100" fill="rgb(183, 249, 211)" stroke="none"/></g><g transform="translate(25 586.6666666666666)"><rect x="0" y="0" width="13" height="70" fill="rgb(6, 28, 15)" stroke="none"/><rect x="33" y="0" width="13" height="70" fill="rgb(6, 28, 15)" stroke="none"/><rect x="66" y="0" width="13" height="70" fill="rgb(40, 180, 99)" stroke="none"/><rect x="99" y="0" width="13" height="70" fill="rgb(6, 28, 15)" stroke="none"/><rect x="132" y="0" width="13" height="70" fill="rgb(6, 28, 15)" stroke="none"/><rect x="165" y="0" width="13" height="70" fill="rgb(6, 28, 15)" stroke="none"/><rect x="198" y="0" width="13" height="70" fill="rgb(40, 180, 99)" stroke="none"/><rect x="231" y="0" width="13" height="70" fill="rgb(6, 28, 15)" stroke="none"/><rect x="264" y="0" width="13" height="70" fill="rgb(6, 28, 15)" stroke="none"/><rect x="297" y="0" width="13" height="70" fill="rgb(40, 180, 99)" stroke="none"/><rect x="330" y="0" width="13" height="70" fill="rgb(6, 28, 15)" stroke="none"/><rect x="363" y="0" width="13" height="70" fill="rgb(6, 28, 15)" stroke="none"/><rect x="396" y="0" width="13" height="70" fill="rgb(6, 28, 15)" stroke="none"/><rect x="429" y="0" width="13" height="70" fill="rgb(40, 180, 99)" stroke="none"/><rect x="462" y="0" width="13" height="70" fill="rgb(6, 28, 15)" stroke="none"/><rect x="495" y="0" width="13" height="70" fill="rgb(6, 28, 15)" stroke="none"/><rect x="528" y="0" width="13" height="70" fill="rgb(40, 180, 99)" stroke="none"/><rect x="561" y="0" width="13" height="70" fill="rgb(6, 28, 15)" stroke="none"/><rect x="594" y="0" width="13" height="70" fill="rgb(6, 28, 15)" stroke="none"/><rect x="627" y="0" width="13" height="70" fill="rgb(6, 28, 15)" stroke="none"/></g><g transform="translate(10 480)"><rect x="1.5143982417029092" y="2.75127081860596" width="35" height="2" fill="rgb(15, 69, 38)" stroke="none"/><rect x="1.445612385171624" y="-3.7598540846718826" width="0.5" height="100" fill="rgb(15, 69, 38)" stroke="none"/><rect x="33.71191065663424" y="9.361703012389" width="35" height="2" fill="rgb(15, 69, 38)" stroke="none"/><rect x="34.43344761658205" y="3.101361050789034" width="0.5" height="100" fill="rgb(15, 69, 38)" stroke="none"/><rect x="67.72160166339046" y="6.456647415997779" width="35" height="2" fill="rgb(15, 69, 38)" stroke="none"/><rect x="67.4339593870096" y="8.226737360576998" width="0.5" height="100" fill="rgb(15, 69, 38)" stroke="none"/><rect x="100.57445084847406" y="-0.6258623606636284" width="35" height="2" fill="rgb(15, 69, 38)" stroke="none"/><rect x="99.15635727034591" y="-22.40664411521419" width="0.5" height="100" fill="rgb(15, 69, 38)" stroke="none"/><rect x="132.20736839845893" y="0.7424583853321032" width="35" height="2" fill="rgb(15, 69, 38)" stroke="none"/><rect x="133.20845245620364" y="-15.88983497060077" width="0.5" height="100" fill="rgb(15, 69, 38)" stroke="none"/><rect x="166.0292780780215" y="-11.555571505699195" width="35" height="2" fill="rgb(15, 69, 38)" stroke="none"/><rect x="166.40270123379378" y="6.838661933341591" width="0.5" height="100" fill="rgb(15, 69, 38)" stroke="none"/><rect x="199.75831131392798" y="-23.958521684600033" width="35" height="2" fill="rgb(15, 69, 38)" stroke="none"/><rect x="199.3235249565128" y="-11.255607834346806" width="0.5" height="100" fill="rgb(15, 69, 38)" stroke="none"/><rect x="232.10201407935025" y="-2.3993220843393743" width="35" height="2" fill="rgb(15, 69, 38)" stroke="none"/><rect x="231.3510470605963" y="-14.929195208012114" width="0.5" height="100" fill="rgb(15, 69, 38)" stroke="none"/><rect x="264.143124512776" y="-10.920424671956317" width="35" height="2" fill="rgb(15, 69, 38)" stroke="none"/><rect x="265.07537938516214" y="-24.862855226441862" width="0.5" height="100" fill="rgb(15, 69, 38)" stroke="none"/><rect x="297.958568570211" y="0.4349811876450289" width="35" height="2" fill="rgb(15, 69, 38)" stroke="none"/><rect x="297.4194867535352" y="-7.440064545101446" width="0.5" height="100" fill="rgb(15, 69, 38)" stroke="none"/><rect x="331.2708398511593" y="3.564155354750177" width="35" height="2" fill="rgb(15, 69, 38)" stroke="none"/><rect x="330.17867292910887" y="4.7686242447318" width="0.5" height="100" fill="rgb(15, 69, 38)" stroke="none"/><rect x="364.7245965248172" y="-14.517949789273327" width="35" height="2" fill="rgb(15, 69, 38)" stroke="none"/><rect x="363.841752551045" y="-2.196547047969524" width="0.5" height="100" fill="rgb(15, 69, 38)" stroke="none"/><rect x="397.83361596786443" y="0.0639442850453733" width="35" height="2" fill="rgb(15, 69, 38)" stroke="none"/><rect x="397.8286431697291" y="-11.614594037704615" width="0.5" height="100" fill="rgb(15, 69, 38)" stroke="none"/><rect x="430.9180475540982" y="1.5823921733616402" width="35" height="2" fill="rgb(15, 69, 38)" stroke="none"/><rect x="429.9258772956698" y="-5.957189656192266" width="0.5" height="100" fill="rgb(15, 69, 38)" stroke="none"/><rect x="463.39778456396886" y="-5.251890319030942" width="35" height="2" fill="rgb(15, 69, 38)" stroke="none"/><rect x="462.3893790936086" y="-3.6898242921228217" width="0.5" height="100" fill="rgb(15, 69, 38)" stroke="none"/><rect x="495.5339279095756" y="-0.5193204980168993" width="35" height="2" fill="rgb(15, 69, 38)" stroke="none"/><rect x="496.5179151651108" y="-5.044934519828729" width="0.5" height="100" fill="rgb(15, 69, 38)" stroke="none"/><rect x="529.095835629726" y="1.5888500867404076" width="35" height="2" fill="rgb(15, 69, 38)" stroke="none"/><rect x="529.8928944473585" y="-21.357531168769366" width="0.5" height="100" fill="rgb(15, 69, 38)" stroke="none"/><rect x="562.2035984573099" y="-5.580885099895379" width="35" height="2" fill="rgb(15, 69, 38)" stroke="none"/><rect x="561.4797276329855" y="1.0310359431507337" width="0.5" height="100" fill="rgb(15, 69, 38)" stroke="none"/><rect x="595.2166183800355" y="-21.544174753423533" width="35" height="2" fill="rgb(15, 69, 38)" stroke="none"/><rect x="595.5042126786699" y="-12.121088844562145" width="0.5" height="100" fill="rgb(15, 69, 38)" stroke="none"/><rect x="627.0187385990722" y="-6.01780195306225" width="35" height="2" fill="rgb(15, 69, 38)" stroke="none"/><rect x="628.4946746146716" y="-10.559931931319143" width="0.5" height="100" fill="rgb(15, 69, 38)" stroke="none"/></g><polygon points="0 0 12 -13 4 172" transform="translate(398 423)" fill="rgb(15, 69, 38)" stroke="none"/><polygon points="0 0 -8 185 10 185" transform="translate(410 410)" fill="rgb(183, 249, 211)" stroke="none"/><polygon points="0 0 10 10 11 185" transform="translate(410 410)" fill="rgb(0, 0, 0)" stroke="none"/><line x1="410" y1="410" x2="410" y2="300" fill="rgb(0, 0, 0)" stroke="rgb(0, 0, 0)"/></svg>