<?xml version="1.0" standalone="no"?><!DOCTYPE svg PUBLIC "-//W3C//DTD SVG 1.1//EN" "http://www.w3.org/Graphics/SVG/1.1/DTD/svg11.dtd"><svg width="600" height="800" version="1.1" xmlns="http://www.w3.org/2000/svg" xmlns:xlink="http://www.w3.org/1999/xlink"><defs xmlns="http://www.w3.org/1999/xhtml"><style type="text/css"><![CDATA[]]></style></defs><rect x="0" y="0" width="600" height="800" fill="rgb(40, 180, 99)" fill-opacity="0.5" stroke="none"/><g transform="translate(420 80)"><text x="30" y="10" fill="rgb(249, 244, 100)" stroke="none" text-anchor="middle" font-family="Helvetica" font-weight="bold" font-size="32" text-decoration="underline">The Phil Concert</text><text x="55" y="40" fill="rgb(255, 255, 255)" fill-opacity="0.8" stroke="none" text-anchor="middle" font-family="Helvetica" font-weight="normal" font-size="22">Central Park@8pm</text></g><g transform="translate(0 586.6666666666666)"><rect x="0" y="0" width="28" height="100" fill="rgb(40, 180, 99)" fill-opacity="0.7" stroke="none"/><rect x="33" y="0" width="28" height="100" fill="rgb(40, 180, 99)" fill-opacity="0.7" stroke="none"/><rect x="66" y="0" width="28" height="100" fill="rgb(40, 180, 99)" fill-opacity="0.7" stroke="none"/><rect x="99" y="0" width="28" height="100" fill="rgb(40, 180, 99)" fill-opacity="0.7" stroke="none"/><rect x="132" y="0" width="28" height="100" fill="rgb(40, 180, 99)" fill-opacity="0.7" stroke="none"/><rect x="165" y="0" width="28" height="100" fill="rgb(40, 180, 99)" fill-opacity="0.7" stroke="none"/><rect x="198" y="0" width="28" height="100" fill="rgb(40, 180, 99)" fill-opacity="0.7" stroke="none"/><rect x="231" y="0" width="28" height="100" fill="rgb(40, 180, 99)" fill-opacity="0.7" stroke="none"/><rect x="264" y="0" width="28" height="100" fill="rgb(40, 180, 99)" fill-opacity="0.7" stroke="none"/><rect x="297" y="0" width="28" height="100" fill="rgb(40, 180, 99)" fill-opacity="0.7" stroke="none"/><rect x="330" y="0" width="28" height="100" fill="rgb(40, 180, 99)" fill-opacity="0.7" stroke="none"/><rect x="363" y="0" width="28" height="100" fill="rgb(40, 180, 99)" fill-opacity="0.7" stroke="none"/><rect x="396" y="0" width="28" height="100" fill="rgb(40, 180, 99)" fill-opacity="0.7" stroke="none"/><rect x="429" y="0" width="28" height="100" fill="rgb(40, 180, 99)" fill-opacity="0.7" stroke="none"/><rect x="462" y="0" width="28" height="100" fill="rgb(40, 180, 99)" fill-opacity="0.7" stroke="none"/><rect x="495" y="0" width="28" height="100" fill="rgb(40, 180, 99)" fill-opacity="0.7" stroke="none"/><rect x="528" y="0" width="28" height="100" fill="rgb(40, 180, 99)" fill-opacity="0.7" stroke="none"/><rect x="561" y="0" width="28" height="100" fill="rgb(40, 180, 99)" fill-opacity="0.7" stroke="none"/><rect x="594" y="0" width="28" height="100" fill="rgb(40, 180, 99)" fill-opacity="0.7" stroke="none"/><rect x="627" y="0" width="28" height="100" fill="rgb(40, 180, 99)" fill-opacity="0.7" stroke="none"/></g><g transform="translate(25 586.6666666666666)"><rect x="0" y="0" width="13" height="70" fill="rgb(32, 64, 33)" stroke="none"/><rect x="33" y="0" width="13" height="70" fill="rgb(32, 64, 33)" stroke="none"/><rect x="66" y="0" width="13" height="70" fill="rgb(40, 180, 99)" fill-opacity="0.5" stroke="none"/><rect x="99" y="0" width="13" height="70" fill="rgb(32, 64, 33)" stroke="none"/><rect x="132" y="0" width="13" height="70" fill="rgb(32, 64, 33)" stroke="none"/><rect x="165" y="0" width="13" height="70" fill="rgb(32, 64, 33)" stroke="none"/><rect x="198" y="0" width="13" height="70" fill="rgb(40, 180, 99)" fill-opacity="0.5" stroke="none"/><rect x="231" y="0" width="13" height="70" fill="rgb(32, 64, 33)" stroke="none"/><rect x="264" y="0" width="13" height="70" fill="rgb(32, 64, 33)" stroke="none"/><rect x="297" y="0" width="13" height="70" fill="rgb(40, 180, 99)" fill-opacity="0.5" stroke="none"/><rect x="330" y="0" width="13" height="70" fill="rgb(32, 64, 33)" stroke="none"/><rect x="363" y="0" width="13" height="70" fill="rgb(32, 64, 33)" stroke="none"/><rect x="396" y="0" width="13" height="70" fill="rgb(32, 64, 33)" stroke="none"/><rect x="429" y="0" width="13" height="70" fill="rgb(40, 180, 99)" fill-opacity="0.5" stroke="none"/><rect x="462" y="0" width="13" height="70" fill="rgb(32, 64, 33)" stroke="none"/><rect x="495" y="0" width="13" height="70" fill="rgb(32, 64, 33)" stroke="none"/><rect x="528" y="0" width="13" height="70" fill="rgb(40, 180, 99)" fill-opacity="0.5" stroke="none"/><rect x="561" y="0" width="13" height="70" fill="rgb(32, 64, 33)" stroke="none"/><rect x="594" y="0" width="13" height="70" fill="rgb(32, 64, 33)" stroke="none"/><rect x="627" y="0" width="13" height="70" fill="rgb(32, 64, 33)" stroke="none"/></g><g transform="translate(10 480)"><rect x="0.7794514099044236" y="-10.327537877479102" width="35" height="2" fill="rgb(15, 69, 38)" stroke="none"/><rect x="0.28907969986756266" y="-22.85888815967212" width="0.5" height="100" fill="rgb(15, 69, 38)" stroke="none"/><rect x="33.23107747495884" y="-18.65386367394976" width="35" height="2" fill="rgb(15, 69, 38)" stroke="none"/><rect x="34.229415791336656" y="3.7933153708912464" width="0.5" height="100" fill="rgb(15, 69, 38)" stroke="none"/><rect x="66.72454264626472" y="8.964485002279815" width="35" height="2" fill="rgb(15, 69, 38)" stroke="none"/><rect x="67.1655659576348" y="-16.14528879870487" width="0.5" height="100" fill="rgb(15, 69, 38)" stroke="none"/><rect x="100.54823383488912" y="-14.759896745500843" width="35" height="2" fill="rgb(15, 69, 38)" stroke="none"/><rect x="99.67461676646981" y="-19.78495912808675" width="0.5" height="100" fill="rgb(15, 69, 38)" stroke="none"/><rect x="133.11322683193154" y="6.365802510873131" width="35" height="2" fill="rgb(15, 69, 38)" stroke="none"/><rect x="133.07496540521802" y="-4.849163571495819" width="0.5" height="100" fill="rgb(15, 69, 38)" stroke="none"/><rect x="166.19688548669743" y="-0.7782331194617242" width="35" height="2" fill="rgb(15, 69, 38)" stroke="none"/><rect x="165.50097128240012" y="7.3461181578811505" width="0.5" height="100" fill="rgb(15, 69, 38)" stroke="none"/><rect x="199.63515407965386" y="9.320065749236939" width="35" height="2" fill="rgb(15, 69, 38)" stroke="none"/><rect x="199.81927353135222" y="7.738124140702631" width="0.5" height="100" fill="rgb(15, 69, 38)" stroke="none"/><rect x="231.46566836973358" y="5.324561705998246" width="35" height="2" fill="rgb(15, 69, 38)" stroke="none"/><rect x="232.3671283623439" y="-0.5690331961015644" width="0.5" height="100" fill="rgb(15, 69, 38)" stroke="none"/><rect x="264.8775640545723" y="8.482156771307203" width="35" height="2" fill="rgb(15, 69, 38)" stroke="none"/><rect x="264.3386702932171" y="-20.39047944055644" width="0.5" height="100" fill="rgb(15, 69, 38)" stroke="none"/><rect x="298.89593816174926" y="-24.815540680835422" width="35" height="2" fill="rgb(15, 69, 38)" stroke="none"/><rect x="297.1518485550434" y="-18.39578451198034" width="0.5" height="100" fill="rgb(15, 69, 38)" stroke="none"/><rect x="330.55983790418986" y="-7.834985407465982" width="35" height="2" fill="rgb(15, 69, 38)" stroke="none"/><rect x="331.71475562008516" y="9.273216944468118" width="0.5" height="100" fill="rgb(15, 69, 38)" stroke="none"/><rect x="364.3519862735483" y="-11.446191628454743" width="35" height="2" fill="rgb(15, 69, 38)" stroke="none"/><rect x="364.6357317258572" y="-18.75589943483866" width="0.5" height="100" fill="rgb(15, 69, 38)" stroke="none"/><rect x="397.18900854258266" y="-3.894551748467922" width="35" height="2" fill="rgb(15, 69, 38)" stroke="none"/><rect x="397.0444639715121" y="-7.016947552736205" width="0.5" height="100" fill="rgb(15, 69, 38)" stroke="none"/><rect x="430.97422909795773" y="-2.578755852754984" width="35" height="2" fill="rgb(15, 69, 38)" stroke="none"/><rect x="430.56665626086453" y="-22.847576514590553" width="0.5" height="100" fill="rgb(15, 69, 38)" stroke="none"/><rect x="463.5417557963713" y="-0.2812474543367358" width="35" height="2" fill="rgb(15, 69, 38)" stroke="none"/><rect x="463.9653140131258" y="-2.8462443188209754" width="0.5" height="100" fill="rgb(15, 69, 38)" stroke="none"/><rect x="496.7723448817489" y="-0.33467188434254425" width="35" height="2" fill="rgb(15, 69, 38)" stroke="none"/><rect x="496.3122301201686" y="8.926077947330008" width="0.5" height="100" fill="rgb(15, 69, 38)" stroke="none"/><rect x="528.0094819812979" y="6.68409107069359" width="35" height="2" fill="rgb(15, 69, 38)" stroke="none"/><rect x="528.7067156596252" y="-1.284118953788564" width="0.5" height="100" fill="rgb(15, 69, 38)" stroke="none"/><rect x="562.2702947452356" y="-15.43504765183763" width="35" height="2" fill="rgb(15, 69, 38)" stroke="none"/><rect x="561.7245551956532" y="-9.849613881652873" width="0.5" height="100" fill="rgb(15, 69, 38)" stroke="none"/><rect x="594.1450688876262" y="-19.68133490553005" width="35" height="2" fill="rgb(15, 69, 38)" stroke="none"/><rect x="595.6707944276116" y="0.8505721391911223" width="0.5" height="100" fill="rgb(15, 69, 38)" stroke="none"/><rect x="627.5288085074372" y="-4.920831080531499" width="35" height="2" fill="rgb(15, 69, 38)" stroke="none"/><rect x="627.1026155344497" y="-20.948141447899342" width="0.5" height="100" fill="rgb(15, 69, 38)" stroke="none"/></g><polygon points="0 0 12 -13 4 172" transform="translate(398 423)" fill="rgb(15, 69, 38)" stroke="none"/><polygon points="0 0 -8 185 10 185" transform="translate(410 410)" fill="rgb(183, 249, 211)" stroke="none"/><polygon points="0 0 10 10 11 185" transform="translate(410 410)" fill="rgb(0, 0, 0)" stroke="none"/><line x1="410" y1="410" x2="410" y2="300" fill="rgb(0, 0, 0)" stroke="rgb(0, 0, 0)"/></svg>