<?xml version="1.0" standalone="no"?><!DOCTYPE svg PUBLIC "-//W3C//DTD SVG 1.1//EN" "http://www.w3.org/Graphics/SVG/1.1/DTD/svg11.dtd"><svg width="1200" height="800" version="1.1" xmlns="http://www.w3.org/2000/svg" xmlns:xlink="http://www.w3.org/1999/xlink"><defs xmlns="http://www.w3.org/1999/xhtml"><style type="text/css"><![CDATA[]]></style></defs><polygon points="256 438 390 432 447 572 501 640 500 638 828 629 862 605 880 627 410 715" fill="rgb(155, 150, 155)" fill-opacity="0.33" stroke="none"/><polygon points="250 249 257 0 109 133 216 340" transform="translate(200 100)" fill="rgb(179, 179, 179)" stroke="rgb(0, 0, 0)"/><polygon points="250 249 216 340 300 539 350 500" transform="translate(200 100)" fill="rgb(153, 153, 153)" stroke="rgb(0, 0, 0)"/><polygon points="216 340 109 133 246 469 300 539" transform="translate(200 100)" fill="rgb(140, 140, 140)" stroke="rgb(0, 0, 0)"/><polygon points="257 0 250 249 694 231 607 111" transform="translate(200 100)" fill="rgb(230, 230, 230)" stroke="rgb(0, 0, 0)"/><polygon points="250 249 709 265 694 231" transform="translate(200 100)" fill="rgb(217, 217, 217)" stroke="rgb(0, 0, 0)"/><polygon points="250 249 350 500 675 490 709 265" transform="translate(200 100)" fill="rgb(212, 212, 212)" stroke="rgb(0, 0, 0)"/><polygon points="350 500 675 490 629 528 300 539" transform="translate(200 100)" fill="rgb(115, 115, 115)" stroke="rgb(0, 0, 0)"/><polygon points="250 249 257 0 109 133 216 340" transform="translate(200 100)" fill="none" stroke="rgb(58, 58, 58)" stroke-width="0.4"/><polygon points="250 249 257 0 109 133 216 340" transform="translate(200 100)" fill="none" stroke="rgb(30, 30, 30)" stroke-width="0.1"/><polygon points="250 249 216 340 300 539 350 500" transform="translate(200 100)" fill="none" stroke="rgb(58, 58, 58)" stroke-width="0.4"/><polygon points="250 249 216 340 300 539 350 500" transform="translate(200 100)" fill="none" stroke="rgb(30, 30, 30)" stroke-width="0.1"/><polygon points="216 340 109 133 246 469 300 539" transform="translate(200 100)" fill="none" stroke="rgb(58, 58, 58)" stroke-width="0.4"/><polygon points="216 340 109 133 246 469 300 539" transform="translate(200 100)" fill="none" stroke="rgb(30, 30, 30)" stroke-width="0.1"/><polygon points="257 0 250 249 694 231 607 111" transform="translate(200 100)" fill="none" stroke="rgb(58, 58, 58)" stroke-width="0.4"/><polygon points="257 0 250 249 694 231 607 111" transform="translate(200 100)" fill="none" stroke="rgb(30, 30, 30)" stroke-width="0.1"/><polygon points="250 249 709 265 694 231" transform="translate(200 100)" fill="none" stroke="rgb(58, 58, 58)" stroke-width="0.4"/><polygon points="250 249 709 265 694 231" transform="translate(200 100)" fill="none" stroke="rgb(30, 30, 30)" stroke-width="0.1"/><polygon points="250 249 350 500 675 490 709 265" transform="translate(200 100)" fill="none" stroke="rgb(58, 58, 58)" stroke-width="0.4"/><polygon points="250 249 350 500 675 490 709 265" transform="translate(200 100)" fill="none" stroke="rgb(30, 30, 30)" stroke-width="0.1"/><polygon points="350 500 675 490 629 528 300 539" transform="translate(200 100)" fill="none" stroke="rgb(58, 58, 58)" stroke-width="0.4"/><polygon points="350 500 675 490 629 528 300 539" transform="translate(200 100)" fill="none" stroke="rgb(30, 30, 30)" stroke-width="0.1"/></svg>