<?xml version="1.0" standalone="no"?><!DOCTYPE svg PUBLIC "-//W3C//DTD SVG 1.1//EN" "http://www.w3.org/Graphics/SVG/1.1/DTD/svg11.dtd"><svg width="400" height="600" version="1.1" xmlns="http://www.w3.org/2000/svg" xmlns:xlink="http://www.w3.org/1999/xlink"><defs xmlns="http://www.w3.org/1999/xhtml"><style type="text/css"><![CDATA[]]></style></defs><rect x="0" y="0" width="400" height="600" fill="rgb(250, 250, 250)" stroke="rgb(0, 0, 0)"/><polygon points="0 0 82.99036978237694 0 166.18885495406366 0 249.76950340863124 0 333.8429034436749 0 0 0 83.8950919471907 1.7573516579700073 168.1881691047494 3.523039917677431 252.78392998736663 5.295068497583886 337.45337289104634 7.068640495810426 0 0 84.28130938070473 3.5324334717891737 168.17444091065335 7.048597471223282 251.31765533320078 10.533330631356055 333.5399126567391 13.979464252557522 0 0 82.435184847833 5.186382224694522 164.096072854672 10.324049821282355 245.2223811037263 15.428084510288627 326.1741269130692 20.52113666148547 0 0 81.41601659140287 6.836693928953506 163.21323530518953 13.705398294488365 245.71045729607425 20.632883577527473 329.110245641655 27.636159474944048 0 0 82.94251632487526 8.7176097493369 166.63170417093343 17.51369783790239 250.83639906778404 26.36396790081548 335.2094283752896 35.23193062322936 0 0 83.69966550593614 10.573726719512072 167.6010860838308 21.17294103186301 251.87299046349165 31.818958332615424 336.6225871988516 42.525322211751764 0 0 84.35221914756559 12.456052017677976 169.0992704905902 24.970407781417308 254.11891664252965 37.52501684440479 339.22757629377185 50.09277027737796 0 0 84.9542318892509 14.36893278242093 172.19334189671633 29.12432377141418 263.62818450010184 44.58936980999203 360.47289759734906 60.96942695230439 0 0 94.66486730538675 18.05828923016936 193.8168867524249 36.97254851026562 296.0896284801838 56.48211740370016 399.41653609718117 76.19277919533774 0 0 99.73149592857696 21.198583864786126 198.7743625889171 42.2507950600505 296.53894527488666 63.031298608884754 392.64736428982934 83.45977370224276 0 0 96.18620130935277 22.56026984234162 190.9976771344864 44.798100733347795 284.8530595816722 66.81168194708886 378.38547800473253 88.74951263284925 0 0 93.8516096973718 24.09699772054963 186.90000913302475 47.98776609769032 278.4574309803534 71.49571649586302 368.0831201566896 94.50768224422825 0 0 89.73785200483825 25.055258473941596 177.87372922755065 49.66323755197414 264.8954658466211 73.96014298408237 351.54085080267083 98.15196914380536 0 0 87.22679270631421 26.335321387063285 174.58432937478162 52.71011670359128 262.18456254087835 79.15818641284059 350.0992368879004 105.70119151178007 0 0 87.23970996984104 28.345900062847598 174.73993618444194 56.776446984806306 262.4213461039511 85.2658640611262 350.1639590605202 113.77516720965606 0 0 86.95484552272815 30.280880977083292 173.9390401692771 60.571982400420694 260.97771480436614 90.88205576302954 348.08697452041304 121.21670945146604 0 0 86.43249124494204 32.1439553583089 172.92340551577507 64.30963804518473 259.454951802829 96.49043164344019 346.00022340141595 128.67632963929938 0 0 85.62563620405002 33.9015876443076 170.12259959848285 67.35630211051932 252.5244380376032 99.98149792499177 332.2118015190299 131.53195707453327 0 0 79.86905244118405 33.57385816190517 157.49360438493233 66.20421519237114 233.55715226857336 98.1783865376145 309.09340003220893 129.93090132256683 0 0 76.68867697548153 34.14399882784465 155.29445568270987 69.14154633931764 237.45889873077385 105.72351329671525 324.2340000651333 144.35827758132712 0 0 84.48789191807252 39.756984131566185 172.78419929724987 81.3060725471448 263.7291815170662 124.10153273527364 355.5688741332337 167.31801167795462 0 0 88.46148694789267 43.91266347728662 177.62801935020389 88.17531455758866 268.1033086514103 133.08763820453672 360.27424279649676 178.84168726189034 0 0 90.65650184588701 47.39407383061095 182.71209508964273 95.51957496821291 275.7407277045321 144.1537687958769 369.0980486234952 192.9597967163345 0 0 91.19855986957758 50.13683256158114 181.3527709359263 99.69952951007524 269.56838543022 148.1964739743572 355.27232546110247 195.31261371758498 0 0 85.49149676698755 49.35853867184427 168.91292926660557 97.52192518168292 250.89467452635063 144.85410787603206 332.39009993994284 191.90551367629257 0 0 81.73947514576747 49.503185753336986 162.5957335784645 98.47147645223903 241.81250060077616 146.4468558596926 318.9051182421353 193.13580467549372 0 0 76.76785155936794 48.718360030579525 151.7871006870693 96.32702321429082 225.59023268828162 143.16391500145824 298.98256581771244 189.74010589718372 0 0 73.63998917489867 48.92629183164753 147.66199422565194 98.10639440438565 222.39312506379787 147.75763902383048 298.0430097866949 198.01930226487542 0 0 74.29129433093456 51.633794642793355 149.3379648656158 103.79258942367244 224.9099840568485 156.31651103256738 300.6594636511151 208.96377083458444 0 0 74.19070883559607 53.90270515192363 148.78983809291537 108.10214510953509 224.14710718537594 162.85240589955163 300.4866334896094 218.31631832736116 0 0 74.85224250633944 56.81594443690678 150.5110059452315 114.24407158146231 226.73068815055484 172.0979592430054 303.13984618134924 230.0956668839057 0 0 74.51942612017362 59.063369343549574 148.33032840177307 117.56516961249395 220.82601695359898 175.02454432434868 291.61769509571985 231.13333702781065 0 0 70.13638303185712 58.021862074235365 138.87558690390975 114.8878770260671 206.64308132718145 170.95002401128596 274.0823366881425 226.74062802868292 0 0 67.28944714453218 58.0826927033027 135.16817900887114 116.67404233198883 204.14078423644833 176.20959811943305 274.53062801290986 236.96848140643772 0 0 68.6574371623589 61.819434092112765 138.47517178390478 124.683604709066 209.09986949001768 188.27436815096243 279.99715568081587 252.1105713668985 0 0 68.92154668800836 64.72164033765841 138.7632393236484 130.30735523461763 210.31297411374294 197.49702847718083 284.0756736452462 266.764813935097 0 0 71.60289246041499 70.11873281847612 145.01461283911084 142.00880080454553 219.6843359349803 215.13079606868098 294.77900666595536 288.6689308023817 0 0 72.06812278323994 73.59354395110503 142.61223604088877 145.63082061409395 210.3578033314502 214.81031622668027 274.4949968977702 280.30506191084555 0 0 63.89717551826951 68.04358082920625 124.86793532246878 132.97084544310084 183.81827799362543 195.74658433796594 242.1088707605955 257.81976094320765 0 0 58.96446954896521 65.48667781134561 118.22773806327118 131.3052054930167 178.03969254402472 197.7331106757356 238.55910870218995 264.94673165114995 0 0 58.874336761018014 68.20657561257734 118.32133126613279 137.0765816070783 178.16369253748647 206.40462440878167 238.1351574389167 275.8822352054914 0 0 58.32229268144743 70.49954125168398 117.78761312422165 142.3807657175656 179.35188090165195 216.79918166549217 243.6224777871306 294.4889875369184 0 0 61.773674080509 77.93897965824252 125.73338477123583 158.63605109962697 191.20234987154873 241.23732769763748 257.16414906826327 324.4604061746212 0 0 62.44692038354846 82.27077934987365 123.0477521353363 162.10942674590478 180.25860251985176 237.48193862469876 233.09849747422834 307.09592938615947 0 0 52.749407763164186 72.60333116078095 101.9764222342789 140.35850387759606 148.7715526356239 204.7664753280983 194.77257212997654 268.0814468833673 0 0 47.034395172263615 67.6736257637772 94.39227871227611 135.81269029120375 142.34418548623933 204.80644224220907 191.06201065289113 274.90220633736055 0 0 46.998158757403374 70.73791559851412 94.61192956656402 142.40240182255883 142.65072308548451 214.706598651558 190.82830412875097 287.2196874976676 0 0 46.42050583369501 73.14701272610716 93.85869685541039 147.89764070935922 143.16566804606484 225.59299504456885 194.88219667736465 307.08520436034695 0 0 49.2425839716453 81.30917045863738 100.41613804453085 165.80675152551342 152.92284689005552 252.50563276621213 205.86488600433017 339.92332971828733 0 0 49.71179001392349 86.10334603931061 98.6861435123591 170.92941456643962 146.30633881706487 253.41001230054286 192.18051711787393 332.8664198730179 0 0 44.74603678231958 81.39273874962949 88.09758875095397 160.24891903972963 130.48637900538932 237.35384227296095 172.56078767084023 313.88690751876015 0 0 41.499098589416846 79.38045421713048 83.74970478822772 160.19840990800478 127.3803079976802 243.65605641739126 172.7902441219011 330.5172528779525 0 0 43.02673350838817 86.67679259836878 87.46897635517357 176.20511026826992 132.88849638972457 267.70214006684245 178.62713791678692 359.84203594342426 0 0 42.74636571608479 90.84065115601864 84.70553160680672 180.00841752925072 125.2191587003176 266.1042575899138 163.86894497271211 348.23923428815846 0 0 37.498994760317146 84.22412121611383 73.52212030813247 165.1333859074755 108.52629580427471 243.75405131200785 143.197741891243 321.627394227776 0 0 34.13670995920715 81.20802395582322 69.15843010965942 164.52140396082822 105.8052986991148 251.7008593293947 144.54759219645334 343.86513357243234 0 0 36.15768679956215 91.3238922130286 73.96538900921524 186.81524763509208 112.91227297910274 285.18384774538475 152.23114699246895 384.4919874568496 0 0 36.03891597844082 96.90572473305177 71.29641163515288 191.71027354162345 105.11898142476713 282.65642296957844 137.09139443440935 368.62765073950635 0 0 30.731414258287394 88.24860087613408 60.01590327346598 172.34219843209786 88.30142534852283 253.56715369108431 116.26074332827075 333.8553783860579 0 0 27.264335742547267 83.91099726685655 54.95128530383863 169.12266612624458 83.41428263794359 256.7227644400825 112.87789615813575 347.40244271687214 0 0 27.254386776919564 90.27088414025897 55.284558006452734 183.11129035463054 83.85033605085931 277.7257119275541 112.5910119116699 372.9194230163349 0 0 26.290667780171503 94.16259093152539 52.80295981864092 189.11895076040636 79.72222154060216 285.5329122047578 107.16621958269012 383.8262679601304 0 0 25.222004333355407 98.23322116434585 50.84625002894363 198.0330690002052 76.74820587212507 298.9145264491448 102.74084558462728 400.14917425017876 0 0 23.581134477267312 100.53867989098165 46.954224047237496 200.1903557933359 69.94527976078305 298.2132220370361 92.443750773021 394.13594268970456 0 0 20.63022530365745 97.05757912891107 40.88868650832653 192.3661456840983 60.89047927336317 286.467182170038 80.80845915853169 380.1739100577879 0 0 18.15646331859582 95.17951389982673 36.18890425978848 189.70887972914 53.99360231730357 283.0443755529233 71.50465451478642 374.8405258705838 0 0 15.66958777824991 92.6441659850349 31.12254358359879 184.00752683727836 46.42593521475682 274.4866111932131 61.68048794627457 364.67694263561685 0 0 13.464524250640936 91.18157974098612 26.776669046487353 181.3312478340302 39.808998722072786 269.58601164186746 52.48054192515797 355.3975342404816 0 0 10.972113040904853 86.85321795979176 21.687643592008694 171.6753763754216 32.226027862787355 255.09527759241612 42.70656653348663 338.0572837355101 0 0 8.88449018715145 84.53027763052312 17.762652371161426 169.00034833289078 26.62919441279439 253.3598607656736 35.48075373950386 337.57682218816063 0 0 7.089803300689711 84.4302157091143 14.169664533634775 168.74203449116663 21.24266169599937 252.97211123677982 28.313417454926167 337.17549582074645 0 0 5.305147388457627 84.32290306915445 10.577315380092674 168.1216136365888 15.788923147906939 250.9577470107492 20.92244610920415 332.5527579260997 0 0 3.440499335316058 82.0878273347952 6.837832417706065 163.1457390755046 10.205363228135282 243.4925901484237 13.563162361996769 323.6072504525291 0 0 1.7059889918372813 81.44306387511084 3.4823071097482448 166.2436051633268 5.3877709376021565 257.2094982529941 7.459751946819951 356.1248385565714 0 0 5.900150565257885e-15 96.35677110111747 1.220387527367962e-14 199.30440813100452 1.8786230290632316e-14 306.80242342056533 2.54595696475762e-14 415.7863257439148 0 0 -2.184074424844212 104.26662407652297 -4.339502604619037 207.16569069626797 -6.442327547822863 307.5535050297508 -8.47732722073091 404.7033747765591 0 0 -4.113117486167407 98.13601024318264 -8.113816789875521 193.58980390917117 -12.036901822714933 287.19177717211903 -15.93464258038874 380.18905434855293 0 0 -5.960534805067791 94.73998775257024 -11.932827326075461 189.66685904840833 -17.92671059699196 284.93690548688494 -23.948432429637982 380.6494331931602 0 0 -8.012813964164994 95.42205654219504 -16.056379936745717 191.21032898543993 -24.121177303205265 287.25143935506566 -32.19290759942878 383.3751117832764 0 0 -10.06148160722196 95.72860296056687 -20.14877420414496 191.7027810840736 -30.28346364467125 288.1279100516019 -40.47926536531782 385.13448352482294 0 0 -12.201339051828517 96.58354376399917 -24.46341749779404 193.64788934056264 -36.7674308308554 291.04418372912573 -49.08513764200655 388.54887315816336 0 0 -14.265802819366138 96.60782758672663 -28.28032046921101 191.5139553364657 -41.83340196269075 283.2952435520506 -54.791519456427515 371.04744344815776 0 0 -15.013432470652702 88.76474285730119 -29.463855240185786 174.20077248105383 -43.52557231737923 257.3386360528298 -57.46036088110691 339.7260531906494 0 0 -16.128059798684607 84.54625027187593 -32.50559336764345 170.4002878462019 -49.341236811882936 258.65582148706983 -66.76755543395365 350.00778284693575 0 0 -19.122944308965817 89.96637957784024 -38.78915350810447 182.4886195154101 -58.830436449025036 276.7754426718419 -78.9941965067531 371.6384753597284 0 0 -21.75968713209963 92.7728995062157 -43.62000775478773 185.9748520890058 -65.66512213664284 279.96467688450275 -87.94850487385962 374.97036399701216 0 0 -24.18393641005875 94.19021353715445 -48.582968709423156 189.21817025230692 -73.13050466051097 284.8245105039401 -97.72653320671371 380.6197169439141 0 0 -26.370172155673025 94.44734360689355 -52.33813692714367 187.45414223771576 -77.56752635896495 277.81566125217284 -101.84461560336528 364.7664242621831 0 0 -26.42487044608821 87.5233934993636 -52.00132856722747 172.23670980581483 -76.99203710092098 255.0099298783527 -101.79147412544219 337.14962814813816 0 0 -27.155494013732635 83.57601686992611 -54.47148795582429 167.64600172708057 -82.08220868254858 252.6230623572635 -110.07294260112526 338.76968333191996 0 0 -29.657473040576846 85.16466178079588 -59.650178822206 171.29198086454227 -89.87433154772711 258.08392503855805 -120.17406128977598 345.0928968414006 0 0 -31.827030025212135 85.58030470558062 -63.376280447407275 170.41368256789758 -94.41544285853121 253.8754751022855 -124.79691081051583 335.5687805308478 0 0 -32.31106293512349 81.60842935370898 -64.04637222099439 161.76267098525878 -95.3841773068404 240.9129316122013 -126.59218080192021 319.7353508440368 0 0 -33.22665828096322 79.0430965631078 -66.24872370243696 157.59948594633602 -98.89509427935442 235.26213261173163 -131.05705351503505 311.7724102336359 0 0 -33.92221103187623 76.19053342973328 -67.42296948424178 151.4344688674288 -100.63275423512181 226.0248666713488 -133.74752401679757 300.4018573603646 0 0 -34.97759344925129 74.33116971637382 -70.03638636299219 148.8348970783905 -105.24428624100148 223.65549286884863 -140.64444083209935 298.88465072141923 0 0 -36.90271919665429 74.34004576481901 -73.97185879656514 149.01534325806387 -111.15589616455821 223.92210080421134 -148.37745241429297 298.90443964752177 0 0 -38.75700263329617 74.13530842113663 -78.03990863121199 149.27657719748137 -118.28853348811145 226.2650957763006 -159.7823315873814 305.6354110909071 0 0 -42.72673064250816 77.7196345171194 -86.52672518186105 157.39152881514994 -131.06770834939664 238.41127642415685 -175.85065500479408 319.8711539836731 0 0 -45.79614498127588 79.32124989836032 -92.00217733960311 159.35244555915472 -138.96088784511065 240.6873180126122 -186.8900823380307 323.70311804020025 0 0 -49.3309448758231 81.45507165309566 -99.49534265306413 164.2863376194235 -150.23516193091854 248.06773741515966 -201.16288016967957 332.1593952722955 0 0 -51.92024932285182 81.81322175952259 -102.82954532924062 162.0334359941004 -151.8824229345674 239.32840290599825 -198.54168204715864 312.8516306003867 0 0 -48.9910041956877 73.73738911282568 -95.93286044166005 144.39056261916235 -141.45997113188713 212.91437288315882 -186.52510878219755 280.7428578244103 0 0 -48.17778199586837 69.31874380389381 -97.93656991995354 140.91225702120508 -150.59856657735435 216.6829401715613 -207.0038864577742 297.83955959216496 0 0 -56.8414699425838 78.23557156197799 -116.87865535983062 160.86966812625212 -179.12218427991434 246.54053599818002 -242.0861757672537 333.2030355220548 0 0 -62.282635897476005 82.05434253247324 -123.06362734736766 162.130341565373 -181.08714192968114 238.57349898588365 -235.5552362361832 310.3325631763235 0 0 -57.14431888961559 72.09818703218656 -111.26082746295664 140.37622818246263 -163.28691538649335 206.01681486807573 -214.63039435722382 270.79616339553814 0 0 -54.78181394227011 66.21983763497857 -109.51117801268916 132.37627426608364 -164.14422813304537 198.41628733111497 -218.6530935050459 264.30618682229647 0 0 -55.91811557611428 64.78176040669051 -111.73070916264999 129.4412724118373 -167.47044965636218 194.0163832966038 -223.18640059680644 258.5639337186453 0 0 -57.1381628882443 63.45835877803306 -114.33174004347973 126.97826133448655 -171.62707468172488 190.61117702504816 -229.05361282073642 254.38980896555032 0 0 -58.70606418728658 62.515608730625004 -117.52339070588901 125.14969981000378 -176.4175334879403 187.86559190153346 -235.3367599626714 250.60819541272312 0 0 -60.26153614589792 61.53705463167147 -121.2090219956696 123.77457803831179 -183.4161205612188 187.29837560029202 -247.24733160510002 252.48066222012042 0 0 -64.64408476123508 63.30416484465156 -130.66291689900237 127.95458178437391 -197.63088389132793 193.5344602442753 -264.90878273837495 259.4178464001146 0 0 -67.67917005245543 63.554971021107015 -135.27219752390621 127.0290487742382 -202.70704096263472 190.35458183322095 -269.93792594794417 253.48858515585326 0 0 -68.60579332932542 61.77293377598641 -137.03923454280667 123.39068100982342 -205.35368269385543 184.90128640900286 -273.62927467988027 246.37690556004887 0 0 -69.45261580030149 59.949889799284136 -137.66184907688836 118.82652059433761 -203.58785308957758 175.73232075644935 -266.5699195792958 230.09698221493693 0 0 -65.07918840623526 53.83818683513558 -127.67452351064617 105.62155151576079 -188.5549895543007 155.98625313140604 -248.87547979888706 205.8877024780587 0 0 -63.24947361152668 50.13091505399252 -127.59059523996623 101.12705966453181 -193.9363153331204 153.71202944014976 -262.866713510108 208.3455898215709 0 0 -69.20693852831855 52.53092549285153 -140.5914495453768 106.71471846682218 -213.47937128550444 162.03966229008807 -286.85821891626955 217.73723914599466 0 0 -72.94354802833871 52.99658978618967 -145.3680809902336 105.61609305393239 -216.8395441079682 157.5431505477332 -287.08214330012146 208.57738613846755 0 0 -71.70073722531593 49.83331055099522 -142.36757449021317 98.94804191019917 -212.32060025394927 147.56666135216503 -282.04053698780314 196.02327969816378 0 0 -71.39377793905463 47.43391265462978 -142.58365107832608 94.73235128418372 -213.39909286036465 141.7820183147714 -283.73175240946466 188.51092559668797 0 0 -71.45466567028816 45.34650973393024 -142.50366517765445 90.43557589250956 -213.27259003194862 135.34690127149634 -283.95005890791657 180.20018692176149 0 0 -72.0189587731825 43.61623178461751 -144.8483777477034 87.72329571393615 -219.16604865887854 132.7316770536807 -295.4026336227192 178.90219405216774 0 0 -76.55631271205012 44.199807752467294 -154.72306837195305 89.32940517439195 -234.00168469744273 135.10093565089446 -313.64336959703667 181.08208386639038 0 0 -79.30088085332702 43.596028172101136 -157.53441964834954 86.60528008216836 -233.80799312648062 128.53703194113805 -307.5544373621157 169.07948274235318 0 0 -75.40867661745497 39.422703438876084 -148.6989183491133 77.73791588330076 -220.5265783573617 115.28850908066438 -291.8766448349952 152.58942241403474 0 0 -73.93485313340756 36.70157982764139 -150.0216807462753 74.47140906402161 -230.06018936876944 114.2028697892273 -315.1938946002943 156.46360807648404 0 0 -84.32979017179684 39.6825870969716 -172.926048771638 81.37282184310064 -264.46790593020785 124.44915005775768 -356.9716230607166 167.978095218737 0 0 -90.0877258292197 40.109639733379375 -177.89313571301653 79.20312693891941 -261.5075179310217 116.43064840672731 -339.7180960719579 151.2522412896369 0 0 -80.69224663639264 33.91989713826577 -156.8644126938678 65.93972735951493 -229.91588465430502 96.64773857480051 -301.9483206949588 126.92738653314264 0 0 -75.70958111875981 29.975543699260108 -151.27241627648073 59.89298656236697 -226.56578112541706 89.70373858268664 -301.511697837672 119.37692615408959 0 0 -75.66456992307663 28.139401315189403 -151.03880979595124 56.17082985256748 -226.21260384534116 84.12771325640784 -301.32094402845973 112.0602545855822 0 0 -75.96583873079696 26.454103932946623 -152.46044403135056 53.092343867368584 -229.926025908149 80.06871362031943 -308.64356019372724 107.481059328967 0 0 -78.86520196797665 25.624857466781787 -158.77550748573054 51.589289661489126 -239.40735953825094 77.78816653709072 -320.2748264296049 104.06359931455405 0 0 -81.05693098619591 24.472530307949217 -164.25329985968474 49.5909949968543 -251.37832873875678 75.89559207303958 -343.5688715319627 103.72955796791467 0 0 -91.09937432079825 25.435402335002355 -186.4232601048975 52.05030946396199 -284.66377707647655 79.47955465253469 -383.8566949731009 107.17471495735674 0 0 -96.58485299454803 24.798775321532094 -191.4729240523515 49.16189108864795 -283.24518633969376 72.72500313625835 -371.0000043437125 95.25661081170246 0 0 -89.51787693414482 20.99622848034718 -175.68845576682418 41.207355278916275 -259.548037429455 60.87644258479866 -342.65298276645797 80.36853153845126 0 0 -85.87697315965943 18.253714141445982 -172.37476211791463 36.63938675447191 -260.01255809075224 55.26737533879719 -349.1202500042849 74.20779995028931 0 0 -89.00578784613525 16.978762088151647 -179.23515181348222 34.190933804615455 -270.30928098181954 51.564253101647395 -361.6592609887282 68.99019376042735 0 0 -91.1028703201467 15.408897129719442 -183.59214762510788 31.05228744866397 -278.62729069464785 47.126278730395 -376.9450080861357 63.755475900478466 0 0 -97.57563148693306 14.408715665592474 -197.88128122724459 29.22056535322892 -300.0717539700178 44.310741486808745 -402.8776995153851 59.49180273665523 0 0 -100.91346542340165 12.74833536378119 -199.87851300823365 25.250528313062567 -295.2656716148356 37.30072877157495 -386.0395915149333 48.76814165167114 0 0 -92.49485700367403 9.721601211379282 -181.15645045187057 19.040310188188315 -267.17153290516046 28.080859650755475 -352.32241986794327 37.03057850717285 0 0 -87.72238611893701 7.366254573992292 -174.30941977846948 14.637170938239096 -258.8116002969057 21.73301729280923 -340.62562440065074 28.60313284636721 0 0 -82.813643223088 5.210192807443029 -163.39560190167285 10.27997992435353 -242.4367905291739 15.252830006185706 -320.97485389756304 20.194026129753947 0 0 -80.52261573767227 3.374897532535156 -163.29087054130483 6.843915228371568 -250.18280308188554 10.485766229384446 -342.3917004207004 14.350464081729072 0 0 -90.54304833728897 1.8966064929442226 -185.49631340940962 3.8855938571775797 -283.4944218401288 5.938361597596236 -382.4867977818709 8.011956273398216 0 0 -95.9891196218408 1.1755276809785973e-14 -191.7414688483163 2.3481557608890246e-14 -287.07663211729454 3.51567478632447e-14 -381.8436344507017 4.6762358470484387e-14 0 0 -94.92499435121596 -1.9883951770493078 -189.38335450877264 -3.967015761153312 -283.51718015554655 -5.938838316345784 -377.54137951059255 -7.908364528080568 0 0 -93.98474900286045 -3.9391280896665157 -186.18714641019272 -7.8035535141655865 -275.0810125273997 -11.529310392131897 -359.68829644767453 -15.075406245094179 0 0 -85.88254918944185 -5.4032720051489385 -168.19417596010385 -10.581880614531746 -248.02229942995956 -15.604240440120984 -327.0115067034927 -20.57382013236489 0 0 -81.5859403304357 -6.850962823989947 -164.907605279563 -13.847678516515556 -251.4512491168008 -21.11495133558434 -342.16933657555984 -28.73276197950448 0 0 -89.20753565054542 -9.37608981448615 -181.88951059015884 -19.117357913426808 -276.9878867927826 -29.112600019211186 -372.9025124264804 -39.19363339723465 0 0 -93.044742907665 -11.754284539203212 -184.43004821623094 -23.298933357942143 -272.73498417769156 -34.4544410316768 -357.0489479386812 -45.105771667930284 0 0 -85.34389277980554 -12.602489639267183 -167.36900413846965 -24.714904275946434 -247.08597108864336 -36.48648180001608 -326.023257284173 -48.142926087104264 0 0 -81.19352941767825 -13.7328575707804 -163.97295272255428 -27.733949014770364 -249.69622816175485 -42.23295577738317 -339.23360207633016 -57.37706900967295 0 0 -87.98654016541221 -16.78433019446605 -179.14192687979738 -34.17315019741379 -272.50118137432105 -51.98238046376373 -366.6048924494787 -69.93362341797835 0 0 -91.70266848092427 -19.49200390827119 -184.28910915805753 -39.171859395868125 -278.51607237397394 -59.20041871365099 -374.86852091608415 -79.6807638842497 0 0 -95.22647615497495 -22.335168339605136 -192.2172458368335 -45.08414799004038 -290.4350454800722 -68.12092491967518 -389.06733030142215 -91.25491847016153 0 0 -96.85725866775944 -24.868717210729397 -193.2775177539529 -49.62523199941369 -288.8865862798719 -74.17346845227725 -383.44466428792254 -98.45185640499196 0 0 -94.36280985160005 -26.34656990710864 -187.85403931779751 -52.449790198094284 -280.7391025025094 -78.38376582229215 -373.4194054555607 -104.26057136257535 0 0 -92.8639804637605 -28.037288715053993 -186.66548592946813 -56.35763291648605 -282.2072938203534 -85.20340539810319 -380.00386333773724 -114.7299305503474 0 0 -96.44106812438517 -31.33560255935224 -194.75021863554713 -63.27818188035403 -294.3585821313819 -95.64290108967758 -394.4058139045252 -128.15021724635045 0 0 -97.77973369118756 -34.05050586973725 -193.74774244026875 -67.47010236340303 -286.3526949466321 -99.71855876484291 -374.60042191901204 -130.44966869764497 0 0 -88.96648910006171 -33.08634071316563 -174.32651778766314 -64.8314508216145 -257.178327228756 -95.64376255381222 -339.1828715387171 -126.14097920822755 0 0 -83.99567157174616 -33.256238993028816 -169.25282943692952 -67.01193574234384 -256.8516503524181 -101.69476248044143 -347.48436463703155 -137.57879257908118 0 0 -88.90024252852037 -37.37022090514312 -180.3091010075645 -75.79496685511009 -273.4626504271947 -114.95311334490111 -367.2055485652905 -154.35899922406614 0 0 -91.29279804923155 -40.64617245359706 -183.13033479303917 -81.5348782000169 -275.97905531252195 -122.87379196948595 -370.1378805251576 -164.79600192910397 0 0 -92.84563096758578 -43.689837599959915 -186.7734117409595 -87.8888962454444 -281.45380550880975 -132.44210768370573 -376.38842854642746 -177.11495033555832 0 0 -92.90194521842547 -46.11692610553863 -183.7161850080221 -91.1975062361349 -270.65507340613436 -134.35434522940744 -352.57299907943445 -175.0187566807763 0 0 -82.63554547401223 -43.2008191744035 -161.12825066949657 -84.2358137909307 -236.73969542304923 -123.76452184963034 -311.3778634147891 -162.78441311342004 0 0 -76.92589077892838 -42.29036632978876 -155.83529884708852 -85.67118051703747 -238.42665666769517 -131.07616370983365 -325.7884031819023 -179.10369027970452 0 0 -84.83048998170568 -48.97690622642564 -173.59262449774081 -100.22374848310432 -265.089137147351 -153.04928469126875 -357.50931037852 -206.40809658483607 0 0 -88.22336940269355 -53.42997169407378 -173.96115682514744 -105.35462143381001 -255.08502532362075 -154.48498254938602 -330.23103205102547 -199.99502189101798 0 0 -76.06175319328347 -48.27025638149794 -147.20252308718608 -93.4175617983163 -214.9208500282672 -136.39291887253017 -281.48309120003216 -178.63460160791988 0 0 -69.05659532449036 -45.881092238097125 -138.6228787258275 -92.10082042481844 -209.13528238462794 -138.9491494076988 -280.8734934776528 -186.61190290269883 0 0 -70.33818726389661 -48.88631365812809 -141.68420239285823 -98.4730859297277 -213.7311411309048 -148.5470128002304 -286.0148486978293 -198.7854982936269 0 0 -70.54047848611386 -51.250657566008925 -141.09050161408243 -102.50824972023986 -211.65824220380688 -153.7787143639248 -282.248937799689 -205.06585679581386 0 0 -69.49391596664442 -52.748753224454695 -139.00668004430406 -105.51181294384295 -208.5325525965904 -158.28482253702396 -278.0628531323909 -211.06119315262572 0 0 -68.38147222984186 -54.198487036837875 -136.66839483335914 -108.32203496327658 -204.77980751058055 -162.30647543626338 -272.66382692490896 -216.11068622993378 0 0 -66.8137725033135 -55.27315959657844 -133.44109712685793 -110.39207609283788 -199.93875107416488 -165.40371967643077 -266.39260285279806 -220.3791269547071 0 0 -65.66409984874882 -56.679730552129726 -132.84402923090627 -114.66789005880939 -202.8377521734146 -175.08485101403346 -276.4770677744063 -238.6486031391908 0 0 -71.1485102383023 -64.06240636433367 -145.2816781421746 -130.81221056159112 -221.4906142355874 -199.43104483173562 -298.40073544659236 -268.6812290175616 0 0 -73.50237666266042 -69.02332601237902 -147.33709649099274 -138.3587430307052 -221.78873599187637 -208.2734861826255 -297.039665767931 -278.93881286322346 0 0 -73.50422360086786 -71.98065383389553 -147.66176920795047 -144.60108784459788 -222.27368687038515 -217.6664758460489 -297.03908936059014 -290.88216729559133 0 0 -72.4112801832859 -73.94396475058088 -142.60078384089607 -145.61912601250094 -208.66606353881915 -213.08276842919838 -269.3879375223935 -275.0899045834771 0 0 -61.08034059189911 -65.04395630057249 -117.80076300197244 -125.445071304835 -171.48895174074983 -182.61718541457637 -224.1528656428242 -238.69855760846272 0 0 -54.587010168821145 -60.62501664060119 -110.40518380526844 -122.61737883614849 -168.50873304668613 -187.14790777966127 -229.57324880844732 -254.96692319665777 0 0 -58.70699483688101 -68.01270812752799 -119.8253460274171 -138.81899947845702 -182.62074610376155 -211.56817066343308 -245.98264571802582 -284.97363787981016 0 0 -60.209997603842446 -72.78138452170555 -120.43664441679651 -145.5828944800256 -180.69419670846747 -218.4217627446044 -240.9917905966169 -291.3090329847045 0 0 -58.74546696820161 -74.11833314433309 -117.52347441134043 -148.27772215027636 -176.3241130873762 -222.46566466589263 -235.13239649165288 -296.66325242809216 0 0 -57.14668197812892 -75.28797312539118 -113.85156552419623 -149.99389831154025 -169.73635053298761 -223.61938357541646 -224.55860371682405 -295.84503485570815 0 0 -53.627693750028435 -73.81218811410406 -106.39391960976361 -146.43866739894204 -158.56101222094924 -218.24051051252326 -210.52572032722986 -289.7637952525697 0 0 -51.06877371501887 -73.47833575721687 -102.39792741025094 -147.3313092082489 -154.2104174539448 -221.87971252595696 -206.6491252374044 -297.3291250904584 0 0 -50.65310643407983 -76.23905409213643 -101.81260349832839 -153.24028735477305 -153.3242848595271 -230.7716005978059 -204.95493248531906 -308.48197246369466 0 0 -49.695067080816656 -78.30689560359531 -99.61583822263233 -156.96944389829605 -149.9555777374655 -236.29218071017368 -200.83813888865885 -316.4702675538905 0 0 -49.02460537794934 -80.94924502009087 -98.48686495102793 -162.62114301010288 -148.25350404030632 -244.7956313187111 -198.12296115518825 -327.1398923665978 0 0 -47.93012435282027 -83.01741059217896 -96.36722593359866 -166.91293150146183 -145.74541569601794 -252.43846495574928 -196.34289326061264 -340.0758668324536 0 0 -48.37568846487995 -87.99505065018921 -97.7311087863291 -177.77222693162395 -147.767912519218 -268.7888350372769 -198.03488449048876 -360.2241176142851 0 0 -47.65867185353479 -91.16263118263365 -95.07516338978267 -181.8620141444111 -142.04210212196733 -271.7014819033502 -188.42659357543653 -360.42683077504796 0 0 -44.69479464577332 -90.03707996990131 -88.9234155285446 -179.13505898382016 -132.82782212061153 -267.5799125442967 -176.62271058984658 -355.80414327695365 0 0 -42.18381851959973 -89.64517751098148 -84.01696218396218 -178.54513302097752 -125.19915755387835 -266.06175299014296 -165.53797466153506 -351.7861029211178 0 0 -38.79210738551308 -87.12849972510374 -76.91232638006947 -172.74791341615943 -114.5652607794919 -257.3177887226652 -152.0603485535353 -341.5331347039332 0 0 -36.201548190962974 -86.12008000310196 -72.6564792140873 -172.84293394454602 -109.58175796809128 -260.6847009224979 -147.11642621633212 -349.97614822129935 0 0 -35.471496718676704 -89.5907739045533 -71.42577040369062 -180.4009032363804 -107.71580556678823 -272.05906925826963 -144.1192594404526 -364.0036982432392 0 0 -34.071769753339964 -91.61622793705145 -67.6214376413031 -181.82856626546192 -100.20194189030417 -269.4349021027118 -131.526783358334 -353.664862471756 0 0 -29.932503551032738 -85.9544418261262 -58.877031400195825 -169.0718038922117 -87.13444241259826 -250.2160351751537 -115.15974846144485 -330.693751792742 0 0 -26.954035452256708 -82.95599117184857 -53.83243513404441 -165.6791993781031 -80.57043417104502 -247.9702988312876 -107.1265280508605 -329.70155177687616 0 0 -24.89298040132109 -82.44952888158026 -49.64407000172858 -164.42909275698813 -74.29647746035396 -246.081805609827 -98.91555053726057 -327.62410966372096 0 0 -23.07560233948821 -82.64752047228544 -46.63158032016326 -167.01555315722226 -71.07926667300694 -254.5773263504188 -96.68226361469168 -346.2769571014955 0 0 -23.335609586081617 -90.88619870082391 -47.562223955578844 -185.2426319155641 -72.40851387697535 -282.01254205843867 -97.46412740055294 -379.59771380527627 0 0 -22.404160474660475 -95.52062562382292 -44.53926291092637 -189.8941164471414 -66.17492015292105 -282.1382118184162 -87.16348879566436 -371.6234308682845 0 0 -19.29817136270164 -90.79075805084078 -38.10499838596405 -179.26992272823398 -56.57010549887154 -266.1414216263631 -74.91978116970704 -352.4698582865399 0 0 -16.80145102176405 -88.0762906851687 -33.37288563037755 -174.94679310593307 -49.51734696275291 -259.5790232284278 -65.10861538746227 -341.31131457316746 0 0 -14.033482420784054 -82.9709302591744 -27.656372394273966 -163.51429220081334 -40.993703742133036 -242.36933016828092 -54.23457467620344 -320.6540599239123 0 0 -11.898008117560595 -80.57315325334301 -24.12385796127091 -163.3664463303356 -36.958271576515656 -250.28092520110027 -50.5811494376762 -342.5348734934055 0 0 -11.471733232585823 -90.80811901152262 -23.507616285605387 -186.08194368369968 -35.9358539677337 -284.4615750489424 -48.496627271197646 -383.89033388529174 0 0 -10.120414141917305 -96.28930857386968 -20.032081664694147 -190.5925257346502 -29.556258457321633 -281.20901486615685 -38.57839651442558 -367.0489244977556 0 0 -7.35087182041282 -87.5391977922892 -14.366578294654737 -171.087017929196 -21.149184145048384 -251.85891677199248 -27.85304965768782 -331.6931219412635 0 0 -5.207554707716021 -82.77171182867322 -10.449146715155168 -166.08443104415974 -15.75392124586743 -250.40140770915932 -21.14055599057499 -336.0195152164356 0 0 -3.574960097467063 -85.29596393097384 -7.19544901220199 -171.67821253355874 -10.84760228552726 -258.8159498449919 -14.510451636147453 -346.208887829517 0 0 -1.8145349773076875 -86.62499510113521 -3.618389245484139 -172.74009847367844 -5.402417200799489 -257.90870355550555 -7.160757891196158 -341.8510114176207 0 0 -1.549532431041389e-14 -84.35261672291875 -3.0802743298199107e-14 -167.6823245126414 -4.5979477988130864e-14 -250.30062011971435 -6.111206811258582e-14 -332.6786039051392 0 0 1.7457779794261654 -83.34257030407217 3.5276368074623004 -168.40762233110397 5.3764715435627375 -256.6700708153663 7.312081259240577 -349.07511355920394 0 0 3.8149323708435796 -91.02152892087751 7.774566972579572 -185.49554847953183 11.834839007984073 -282.3707044644017 15.929105913873924 -380.05695348743177 0 0 5.997684229381841 -95.33046094325421 12.034161508931918 -191.2775197620378 18.142649283292915 -288.36915261982244 24.34443492247086 -386.943712573777 0 0 8.225090053706273 -97.9499850713424 16.553869439278667 -197.1347734630165 24.95476262844243 -297.1783422375303 33.380015534700824 -397.5120031460124 0 0 10.393489379643848 -98.88744590902382 20.52846868887073 -195.3153327930139 30.183582712857103 -287.1776064642963 39.21697615805458 -373.12460396029087 0 0 11.06953050592075 -87.62435659922912 21.517372430253175 -170.32754134409393 31.532842697243417 -249.60815200001372 41.40225977152907 -327.73263258942717 0 0 12.05748949097673 -81.65315900004902 24.4780359444743 -165.76493493764326 37.57251526487183 -254.44057531629903 51.54015200040495 -349.0292261357677 0 0 15.627005799548611 -92.39240620943683 32.08530324658891 -189.69970376522372 49.12174698424052 -290.4252074454483 66.35348592720962 -392.3053657134999 0 0 18.736831114066568 -98.22190842825 37.54574209493505 -196.82167275077782 56.48845299232984 -296.12284079887417 75.6045170455024 -396.33275791392293 0 0 21.149053931003834 -99.49847591078425 42.45851745995014 -199.75161964589796 63.8795425741821 -300.52961937420775 85.33825268796818 -401.4849130860955 0 0 23.459325858552276 -100.01934619493939 46.98601964903556 -200.32591703336905 70.63776671817836 -301.16565524610746 94.45153466938737 -402.69617301457134 0 0 25.87846253261419 -100.7899570454695 51.90407918188652 -202.1530415353668 78.03203850108798 -303.91472440772503 104.1945687118806 -405.8110520130965 0 0 28.125566523797325 -100.73445974982613 55.909010528559456 -200.2435743285923 83.05738171035871 -297.4781136496892 109.38294312614691 -391.76567954054866 0 0 28.57695117861348 -94.65142877883605 56.41639184129929 -186.8601048778756 83.7429090668773 -277.36989659023027 110.89616307242119 -367.3058128311062 0 0 29.47291047371161 -90.70829135758238 58.37059314266273 -179.64621357032794 86.20049592139742 -265.29784719362755 112.64696724179734 -346.6917165928 0 0 28.61566268814813 -82.17298996226546 56.003487341582215 -160.8201093689057 82.53737582546214 -237.0150581215267 108.7828085287389 -312.3816747043714 0 0 28.828254445666012 -77.5168401712551 58.39913425457548 -157.030539767286 89.34852953557026 -240.25095576283536 122.08394990221962 -328.2738484871604 0 0 33.96899886391761 -85.79589750941909 69.51102318461648 -175.56480380282875 106.1470544469457 -268.09685621705074 143.15263631221757 -361.5622869089673 0 0 37.713063817608635 -89.71583358816994 74.744159269324 -177.8093285426299 110.50933520039351 -262.8913199608205 144.6343670300166 -344.07156274417116 0 0 36.367686285728524 -81.6831607795584 71.29971091796014 -160.14177269047863 105.23326231634343 -236.3577770004164 138.82953396671994 -311.8162385932378 0 0 36.199737395209844 -76.92835780470489 72.4363020528597 -153.93497752581604 108.7412281664749 -231.08687273572804 145.13472439607236 -308.4269890230115 0 0 37.97565184495063 -76.5014545691911 76.02843886477703 -153.1582969405597 114.1348718166474 -229.92320834125897 152.25942612202832 -306.7246249718877 0 0 39.842876183904075 -76.2123929506693 80.7297511970976 -154.42177147664174 123.55457313514273 -236.3381005719609 168.89022784404986 -323.0572097899574 0 0 46.307633965417494 -84.23327348065767 94.7926277772026 -172.42714981875898 144.7919307033663 -263.37554421021105 195.30276040780268 -355.25440235714467 0 0 50.639146301301466 -87.7095742457677 99.80428339080751 -172.86608964588117 146.2332568572699 -253.28343063306133 189.11721616308674 -327.56062698045224 0 0 45.60358723355526 -75.30047265662603 88.144179076021 -145.5433387808344 128.5545204475945 -212.268743295857 168.24527283304712 -277.8059651686699 0 0 43.45960384696661 -68.4813777569431 88.39954816453402 -139.29539884246043 136.08740865044314 -214.4394429496154 187.33551006894749 -295.1935290872802 0 0 51.753242048278004 -77.89489130537223 106.57291691076847 -160.40513502741985 163.5252329014299 -246.12526169201382 221.19794543144164 -332.92967231464695 0 0 57.29679062378951 -82.43927772300552 114.43984809593782 -164.6573624289955 171.29753485682429 -246.46485249148802 227.78549109284864 -327.74037004574853 0 0 58.29933815289673 -80.24215500908241 116.28111193939746 -160.04722016567146 174.04202622247823 -239.54829829478902 231.7283351629888 -318.94669097922247 0 0 59.55475752589621 -78.46049549849438 119.08323428752493 -156.8863673687151 178.56292677385943 -235.2479683297569 237.97941362977096 -313.52629894788566 0 0 61.06354081591746 -77.0430144612962 122.07292780308019 -154.0177037950918 183.0446519130669 -230.94487440409424 244.00365367327748 -307.8559934025172 0 0 62.471522745940064 -75.51509881373232 124.20287929622435 -150.13549039212418 184.56028526102145 -223.0950610129383 243.13758047492658 -293.9028473751923 0 0 60.630363479227 -70.24095214609835 119.7389275432386 -138.71888270093197 177.78911132685644 -205.97066789952038 235.48177903276164 -272.80826673561603 0 0 60.10177939155363 -66.7497883557628 119.96067661096525 -133.2298287315158 179.36871819203844 -199.20914319294883 238.1926245229913 -264.53970973524537 0 0 60.370119951985444 -64.28764813629822 120.24186997713352 -128.04458620404407 179.76701393998968 -191.43242630424817 239.17507594072168 -254.69558677833697 0 0 61.299629605953676 -62.597120770868024 124.00178166119268 -126.62645031210096 189.30739838648103 -193.3143504421183 257.98610254131376 -263.4467340470795 0 0 69.03185153929326 -67.60098353183717 140.93626946938576 -138.01499190580822 214.8384984064653 -210.38540136089733 289.41557887702527 -283.41667426356867 0 0 73.92109523580248 -69.4165289249061 146.80913651083253 -137.86295560876457 217.77954752582932 -204.5086076154047 286.26544834214934 -268.8211492491464 0 0 70.6269933832306 -63.5928304788576 139.14170731928914 -125.28375600079427 206.1873742237771 -185.6519456342411 272.7368036771033 -245.57332105972975 0 0 69.16570453537362 -59.70223463876355 137.78418133441681 -118.93211496646056 205.38685401657528 -177.28517670117617 271.67343582300145 -234.5022192657448 0 0 67.89831504997716 -56.17037121964692 134.67946100754529 -111.41653979023631 200.68363877505547 -166.01994437427777 266.42536019775014 -220.40622618721085 0 0 67.86572076959263 -53.78970746656787 137.08805990549007 -108.65465740075871 208.82865319782843 -165.5155509846355 283.8319339148162 -224.9624187560195 0 0 75.17227062809499 -57.058859002657705 153.11006448135547 -116.2168643854211 232.97122301541506 -176.83478302097635 313.4820854502641 -237.94585375848183 0 0 79.64695456447446 -57.86689971720142 158.0188001488009 -114.80737853248377 234.02369525617087 -170.02816716457468 306.96193422949614 -223.02089969651357 0 0 75.02654607769767 -52.14480791891175 147.4572667132035 -102.485470156721 218.08264399537956 -151.5713860772791 288.09818444804955 -200.23345435991524 0 0 73.04529461891791 -48.53117771331841 147.48517602873227 -97.98891667522562 224.51379135953772 -149.1666063420695 304.8964087429866 -202.5726896449015 0 0 80.39714237887539 -51.02157802103883 163.62969895444044 -103.84256460782755 248.834227948 -157.9150029453004 334.70488031639854 -212.41017603099127 0 0 84.7216796625731 -51.30927300660845 167.55303021204287 -101.47372200922108 246.87541371200982 -149.5130650291478 321.65152747322173 -194.79908922777037 0 0 77.17877660040602 -44.559187445970466 150.51888389019047 -86.90211813212359 221.18927540751906 -127.70368769838954 290.95784899677653 -167.9845924411236 0 0 73.39922915191376 -40.35156769362778 147.7314288779579 -81.2160403007427 223.79547676741782 -123.03260449258696 302.1033328164816 -166.0827126588015 0 0 78.46724912471788 -41.02168650433701 158.82688138809218 -83.03268700560886 240.50262731065067 -125.73173510041008 322.62295048202236 -168.66320256419908 0 0 81.58838443243205 -40.50082575875395 162.51789276933167 -80.67458258327908 242.22434714546733 -120.2412101491108 320.34619467513136 -159.0212320451339 0 0 79.42830483675368 -37.37612317341454 157.5216602944746 -74.1240668518298 234.68658583957645 -110.4351245757575 311.53789195417727 -146.5986041977973 0 0 78.80790858683005 -35.08754153202963 159.4096488612966 -70.97374838801046 243.3412306118524 -108.34249618667633 331.58700435225353 -147.63204601314968 0 0 87.65827914404808 -36.84814757087825 178.9471861051386 -75.22247054565042 272.7611202469386 -114.65821721118851 367.42799716411736 -154.452508004715 0 0 92.81934703859844 -36.74977925089703 184.64894314145576 -73.1076883846004 274.6412912240313 -108.73817956796606 362.25327352962466 -143.42621726904088 0 0 89.08589877468756 -33.13074877308896 176.1706395455039 -65.51727355569884 261.8636159694074 -97.38620581734725 347.08646068391874 -129.0802976635273 0 0 87.29354464373573 -30.398828490055315 174.8960221479187 -60.905238784446865 263.0719634052142 -91.6113502863822 351.99089280411056 -122.57619763389289 0 0 89.30883870926633 -29.01820074432846 179.24168384929274 -58.23915346858687 269.60851266322 -87.60111603633916 360.1219392017634 -117.0107110922422 0 0 90.87724145104124 -27.437456842428187 182.93635599624974 -55.231742209761705 277.1893497529562 -83.68839876290423 374.28476594595503 -113.00323324572932 0 0 96.77433191495032 -27.01987896524834 195.93360287188509 -54.70564487571009 296.75155001619385 -82.8545214988841 398.1297904838861 -111.15983482880966 0 0 100.08874672543249 -25.698422322989337 198.81908216993696 -51.04806390960514 295.02783531884637 -75.75027320363625 387.9695890566702 -99.61365961955352 0 0 94.47033585337628 -22.157817232996113 186.2020675355209 -43.673300656638006 276.0291561867537 -64.74205409047077 365.21286502595814 -85.65990415175227 0 0 91.37527353315261 -19.422413963864745 182.13224409373652 -38.71340357380993 271.7414754895824 -57.76043369320437 359.86367900542234 -76.4913862793173 0 0 88.97227294622255 -16.972368779066933 176.6991736154047 -33.70717009072825 263.5599434091311 -50.276748101439864 350.12813810568775 -66.79051442745127 0 0 87.85928105047513 -14.860285069399167 176.39487873404642 -29.834960534950234 266.18590477880343 -45.02197581376145 357.6034824232521 -60.48410170311384 0 0 91.1999232531078 -13.467232984844854 183.7608351717189 -27.135439290656194 277.2682867926101 -40.943418419133565 371.09547524914285 -54.79861217571398 0 0 93.3962077229624 -11.798684870865404 188.1788595997721 -23.772518369936577 285.5351304395987 -36.071475552962795 386.2258201683996 -48.79166780171209 0 0 99.86704747424758 -10.496449653021793 202.5216187909271 -21.285879867787237 307.1148557664706 -32.279072054063406 412.3629652440749 -43.341094113865196 0 0 103.11234021975417 -8.658585127278554 203.56765461561142 -17.094053562291585 299.09080349536646 -25.115356487221298 388.22376560047957 -32.60006043622314 0 0 91.31500533846466 -5.745053176134826 177.2926383096092 -11.154307345770878 259.5582382715345 -16.33002019379733 340.5699302512529 -21.426843838356547 0 0 84.99010472602687 -3.562140798607707 171.4713678899842 -7.186779653031006 260.72062832384336 -10.927431966166194 353.55614706323286 -14.818393036605023 0 0 91.75006013603954 -1.9218897858817452 186.49289064039613 -3.906469174297045 283.317131552658 -5.934647895478449 380.84446349838834 -7.977554274317672" transform="translate(300 450)" fill="none" stroke="rgb(20, 20, 20)" stroke-width="2"/></svg>