<?xml version="1.0" standalone="no"?><!DOCTYPE svg PUBLIC "-//W3C//DTD SVG 1.1//EN" "http://www.w3.org/Graphics/SVG/1.1/DTD/svg11.dtd"><svg width="400" height="600" version="1.1" xmlns="http://www.w3.org/2000/svg" xmlns:xlink="http://www.w3.org/1999/xlink"><defs xmlns="http://www.w3.org/1999/xhtml"><style type="text/css"><![CDATA[]]></style></defs><rect x="0" y="0" width="400" height="600" fill="rgb(0, 0, 0)" stroke="rgb(0, 0, 0)"/><polygon points="0 0 60.088486216869725 0 121.1735985196523 0 184.088820061643 0 249.36373773473667 0 317.1252479599507 0 387.05498850177656 0 0 0 66.24876728746949 1.387713849868451 133.4747710586812 2.795897885954877 200.7555204050168 4.205228678364916 267.1080220737803 5.595115453761243 331.74899435791184 6.9491507993308925 393.94311406236767 8.251931889879186 0 0 63.81643350901374 2.6747010391020036 125.74281121059626 5.270185269082528 186.05665085158435 7.798084129760737 245.3692733470768 10.284019558887326 304.53968343788483 12.763994522258194 364.54955383173535 15.27915329677883 0 0 59.916966508524254 3.7696560107318793 118.03927866400724 7.426401940006853 173.66682337939676 10.926190405913108 226.54221004122334 14.252827763649995 276.9108194707304 17.421752065936477 325.5087941316482 20.479277470929425 0 0 52.69690436279762 4.425082695212885 104.99738441972863 8.816876711383545 156.95332660176675 13.1797390738552 207.17093956343146 17.396629853277133 254.87482458493784 21.4024369999322 299.6670878105533 25.1637484332281 0 0 47.56572203847892 4.99935883971406 93.07461976974673 9.782536733542843 137.16347213631553 14.416461845272368 180.7886208557618 19.001649739781172 225.08298186605316 23.65717468034964 269.8761608785969 28.365127505581597 0 0 44.594781693436225 5.633631053271681 88.7664160215644 11.213806162892887 132.44603033063544 16.73182468932356 175.6818135970143 22.19377431599585 218.53973516581772 27.607988909274837 261.2314941907981 33.00121229167165 0 0 43.26543679686747 6.388883858130164 88.14345518918222 13.015893048807921 139.5113770622486 20.601247807188322 201.29679268941948 29.72492420554784 275.79488554791067 40.72584545267962 363.2092039050194 53.634068941633714 0 0 70.56911737859978 11.935872782061757 148.88783058771057 25.182491587049203 230.8572198552182 39.04657602885015 311.3961709748735 52.66871996764358 384.807338506918 65.0852895521007 445.69393022451095 75.38348570177945 0 0 64.50428256600865 12.304849986255377 117.20902803866173 22.358817890496766 158.06524073310172 30.15255728597291 189.3403614889604 36.11860564577061 215.34282488547967 41.0788408214715 241.83884774745093 46.1332275006089 0 0 39.43538916042968 8.382250728060194 80.57571513462247 17.126896963118515 124.88086942337125 26.544248222994785 173.28642220314035 36.833166087599295 226.02960368694934 48.04407539533571 282.57271281006393 60.0626842566778 0 0 49.93359363158458 11.711818651651452 101.62330330877279 23.83553060321464 153.37651517784963 35.97413685941909 205.940528064905 48.30291477751516 262.84580107793613 61.64992606551861 325.6320271603264 76.3763024429924 0 0 58.52129864424181 15.025715643888308 121.82352476622118 31.27896482614257 189.22448985879672 48.584591308584464 259.1950609159787 66.54998046607791 329.5740870755676 84.62024306903899 397.88243728391194 102.15884645125752 0 0 66.76349324868461 18.64070225214282 135.46310650421466 37.821978923266244 206.86994165344566 57.759125528621354 281.27541765085283 78.53350770227959 358.4241625275454 100.07382430938418 437.5252202589056 122.15923645981712 0 0 74.0914957720337 22.369541429482158 148.6361363539296 44.87589534320618 222.89064449544554 67.29465310871524 296.92989268215945 89.64842006216308 370.6564871546621 111.90779129393934 444.0195483959111 134.05740537217474 0 0 73.23584559591954 23.795768704386205 146.21501523601864 47.508138335176945 219.0156720134005 71.16250562083992 291.75602795214974 94.79727997633181 364.5766917582517 118.45814793968906 436.33174386361907 141.7727776729414 0 0 70.72229011442798 24.62810711131672 139.14201004833635 48.45437444983468 204.872602310963 71.34418845493859 268.02874455665096 93.33748411105647 329.2280840002899 114.64934893501928 389.5191715182867 135.64492697482135 0 0 63.62473729754335 23.66182769834307 126.20834796076632 46.936463872134325 184.60348700553124 68.65342141391996 236.27507399598957 87.8699123606791 279.7417751346369 104.03503361136845 314.87221838487415 117.09992834352524 0 0 45.48399486273133 18.008387518166995 85.98989041182573 34.045806087488415 124.15070521373252 49.15474150610598 163.23038898864934 64.62748288755341 204.9960963738957 81.16369624862229 249.47088606545947 98.77251117290052 0 0 43.26852651416645 18.188413755515963 89.07608395060436 37.44413783270887 137.43321522789827 57.77160406646786 187.8520111712478 78.96571432516421 239.40538044336319 100.63675529544399 290.85254531653925 122.26315204725395 0 0 48.35408472553347 21.528625571646835 97.34373778149693 43.34022439547476 147.5131792212541 65.67709885036143 199.21117198443733 88.69452820140373 252.52615102605455 112.43188622735511 307.25767151716843 136.79992914055097 0 0 51.85531991611392 24.401261343357497 104.36208193736208 49.10906807266888 156.89240048932365 73.82795966392328 209.6820008566876 98.66886001627391 263.9567060338644 124.20859764597898 320.2432578354801 150.6950384364224 0 0 54.37742134548786 26.993186376276647 110.38224995567336 54.79422473448136 167.78227178054533 83.28784301911676 226.0569764851898 112.21565765601808 284.4707175596715 141.21249054629064 342.17960939693273 169.85943323661078 0 0 57.29908345365006 29.955236925478555 116.66135414236332 60.98908207159182 178.9085212392636 93.53111461275492 244.3511294754641 127.74368341103964 312.7170468629963 163.48452130119202 383.1634070672747 200.3129884120798 0 0 64.85743188150533 35.655674906133235 130.19527006221549 71.57545541019702 193.74065288835175 106.509825244236 252.0760843275637 138.58000006561514 302.8330874050295 166.48389863881474 344.77839106890474 189.54352446566855 0 0 49.958606584677966 28.84361496000243 93.72813691925242 54.11396508097248 133.1932916630163 76.89918279589479 171.20444777629157 98.84493401010315 211.1520202279815 121.9086757185584 255.89866692207644 147.74316423272717 0 0 45.339894578276585 27.458816188170285 95.65208214886154 57.92896005099596 151.7713155973355 91.9159759057037 213.44995387375874 129.26988700148303 279.35421660335794 169.18292723109118 347.21980703681095 210.28378973963981 0 0 58.8577777032971 37.35228154107603 117.6875571195367 74.6867948288872 176.40945438866527 111.9528440242812 234.95949310386223 149.10982846490217 293.3006905441042 186.13427820231297 351.4305059709717 223.0245808348826 0 0 57.614608520512846 38.27905438098018 115.1043704159888 76.47516086260306 172.53632092280512 114.63285754943314 229.99318782437342 152.80710864935705 287.611841666369 191.0888507355044 345.5533571442094 229.5851015796456 0 0 57.02068504311152 39.63040849432973 114.3410354583891 79.46908984791338 171.9610512458327 119.51604406075094 229.8220657364043 159.7304967356702 287.81392396992794 200.03588818093561 345.78993192289806 240.33026339423867 0 0 56.97733296146307 41.39645552882455 114.96336041539695 83.52577050419394 174.80165838111296 127.00083877974329 237.02822665702078 172.21108700401953 301.77149828616797 219.2498272447979 368.70925590127194 267.8829548814856 0 0 62.251019500458234 47.251095580460266 125.49516441977124 95.25601438287349 188.75605817595198 143.2736462444149 249.84604461551874 189.64346976583917 305.6736895228529 232.018958660909 354.40944072323134 269.01140724462516 0 0 52.71438017879062 41.78090289094868 99.74881715683495 79.059938274557 141.93729955660356 112.49811738778564 181.11695200771723 143.55152726966304 219.86923169138475 174.2662056700293 261.1442341548856 206.98036950733922 0 0 43.66400456210685 36.122006023045195 89.34812975440504 73.91520117092792 137.84044537330104 114.0315334776835 189.43067856731568 156.7106860852698 243.8426207961208 201.72415941703534 300.2476464387319 248.38645474302564 0 0 50.792791170074366 43.84316124247103 102.02465629739561 88.06532095817985 153.15092939088674 132.19633607524605 204.64214733355902 176.64236313591041 256.6610973382894 221.54391629302734 309.2913132440472 266.97310002218813 0 0 51.076241179572534 45.98925412561899 102.5772316487916 92.36095422944834 154.37147189039382 138.9966976143209 206.26147033265093 185.7186620703378 258.013271533577 232.31619317134945 308.2661017070534 277.5640446969602 0 0 48.75966708301838 45.78837515380593 95.00548187161651 89.21608587275854 138.32828270523711 129.89890378261043 178.86445680406592 167.96490500811072 217.2959402690318 204.0544701730051 254.77011489354214 239.24506249934007 0 0 40.77332024167425 39.92818515995954 81.36849123077616 79.68191368257253 121.27722294470965 118.76343120256081 160.09244229954191 156.77410230410436 197.5788333241606 193.48348856300862 233.72022964919233 228.87575870073468 0 0 37.09839399088548 37.88363264151197 73.40821833211591 74.96200446965513 109.35288817687591 111.6674928030281 145.45493762780808 148.53369189889278 183.78093473202043 187.67091156593142 227.37077145492634 232.18338727363368 0 0 40.999026148244276 43.6595284065281 86.84668006572862 92.48232096129215 137.542961752453 146.46837766429212 192.13863627155882 204.60686597671605 248.8513809109892 264.999804985669 305.30766578702867 325.11964208521533 0 0 49.566741704853435 55.04944365671631 95.95719626623823 106.57126306120527 136.51501958326259 151.61528921132378 169.55239707847173 188.30701411463937 194.66490478953273 216.19727945728835 212.86717587717095 236.41294952553295 0 0 29.18566137757326 33.811914138973094 55.26960921221792 64.03045855298325 81.30124734543448 94.1884015946126 108.72538860906833 125.95957503985723 137.08109568605823 158.80997786724637 166.6922449818568 193.11482450386222 0 0 28.050047468911668 33.90668280904684 57.09703708208458 69.01846165587763 86.99458737474177 105.15839174562822 117.42024671263295 141.93669600943977 147.92091840683094 178.80567463574118 177.9788024588614 215.1394149473346 0 0 30.030816043431553 37.88946012307755 62.66825480095678 79.06765962768657 98.92918655294584 124.81756950877792 139.1874549971152 175.61086312535747 183.08665990454497 230.9978752987638 229.5576005884753 289.6296104930127 0 0 39.32335733686131 51.806610075994236 79.20801873433486 104.35271094249003 118.1229294616601 155.6212124827398 154.83078309097857 203.98202367721345 188.34710025656966 248.13814085984984 218.16669790780327 287.42400994032033 0 0 32.53004788773108 44.77376978473455 62.51625599443491 86.04624448628783 90.74617997083162 124.90140146367597 118.40260441203606 162.96720404942684 146.88669743019955 202.17219470064623 178.54799931409914 245.75023819222554 0 0 31.637006488336006 45.51968680656903 67.48433825490683 97.09723778210386 108.2272796683099 155.71864791457827 153.6374026056794 221.05525220800095 202.5725664526863 291.4637256824157 253.11107892084883 364.1791154924091 0 0 42.303260215131104 63.671525220518134 83.9763779544526 126.39460976915915 123.22144989452522 185.4631916019988 158.59859325593212 238.7100729135253 189.27545771166854 284.88246574912995 215.19486022069032 323.8943027130254 0 0 31.063683802268336 48.94853327416716 59.369437722399326 93.5512644386128 86.39810660907364 136.1416315945911 113.97719221403172 179.59931671649602 142.6737086643582 224.81779110165317 171.91268317103388 270.8910426082253 0 0 28.099753017824057 46.39820707393166 56.693243538860685 93.61167166630811 85.78047156310988 141.64039377712933 115.26477615679983 190.32476723411835 144.96466275947924 239.36510889795116 174.63843397255206 288.362328928152 0 0 27.941732643316094 48.396500589729285 54.783400868767444 94.88763371611816 79.60501555225841 137.87993147382215 101.822024769877 176.36092023096364 121.29436171072136 210.08799715460637 138.37343095091575 239.66981282460983 0 0 20.35509887325413 37.02578739818769 39.65027759639844 72.12358720066848 58.92758100455234 107.1888719258887 80.0553076915754 145.6200640999836 105.45690631860028 191.82540047268586 136.61826898412068 248.50770873734376 0 0 26.185596486149194 50.08842634348478 56.88014782348836 108.80168783515448 91.42160213716217 174.87339603941254 128.3515800529049 245.51392850456483 165.6208227191806 316.8034145834719 200.8874321346797 384.26221656367625 0 0 31.969759613702312 64.40266312376144 63.56210374010855 128.0450276785089 94.62979872307514 190.63049338724085 125.11871536293565 252.05001768431413 155.08045720221386 312.4075552320506 184.66983486848133 372.01497001741586 0 0 29.176348402112797 62.002896452212 58.2727413912119 123.83587900274046 86.78528993120287 184.4281289426167 113.29985003116536 240.7744373187149 136.92519944137487 290.9808604440458 157.2040097600565 334.07552599418074 0 0 22.520527295496347 50.58193247339845 42.778251602588355 96.08152622274041 61.47372147518874 138.07223906201924 79.65905054735019 178.9171569036433 98.58060952806156 221.4156741939186 118.69258779036433 266.58791696701286 0 0 19.313810312669556 45.94573913021355 39.343666235352956 93.59488345445293 60.20611336282454 143.22468398676398 81.86230316349287 194.74272372246483 104.1179929794007 247.68691763814556 126.64636261589987 301.2797912136211 0 0 20.284516168667455 51.23283960198623 40.33324202358862 101.870140852285 59.47342782166042 150.2127318606682 77.16628999353154 194.89980066794314 93.10037493579404 235.14470526726183 107.25428557126881 270.8934028106729 0 0 15.585610010373854 41.90844237283653 30.162022223385055 81.1032336466519 44.271116028065116 119.04144358856718 58.58162153045416 157.5212332646753 73.4226412443717 197.4275326665506 88.78840337353257 238.7448219016869 0 0 14.33858567337015 41.17480938503391 29.143267393293 83.688064298037 44.41404515976855 127.53976473900929 60.05966951575941 172.46787796039877 75.9088067129748 217.98040045587655 91.73329056753212 263.42212819462077 0 0 14.540056735000011 44.749693242903696 29.888608743762667 91.98767907975069 46.72180448329206 143.79492848534892 65.46926194693174 201.49366968508608 86.23392361040052 265.40072704175805 108.75752374456364 334.7212403725902 0 0 18.284946509863033 60.56266469735768 37.32610010881966 123.63000811247024 56.380006970287724 186.73959237093783 74.73501757754318 247.53432055480397 91.82868592357212 304.1512816123588 107.22248260792384 355.13799609417606 0 0 15.402480251994321 55.16548531313031 29.51750872850871 105.71983651995941 42.5341225545251 152.34010852146517 54.868735993811555 196.5177296185604 67.1064784242175 240.34839774897517 79.91603712234834 286.22708161470655 0 0 12.803823776991411 49.86760117121831 26.734647565078582 104.12457758315769 42.23212563837787 164.48326957857225 59.45789314615602 231.57320450017403 78.25785680142693 304.7942286194814 98.1697367432323 382.34588075104904 0 0 15.87310790064962 67.67534088051897 31.975152757811294 136.32675945603475 47.55361014701774 202.74585147039943 61.82173412684201 263.578308485361 74.19503768744823 316.3321574179884 84.3735928253008 359.7286486997707 0 0 11.235669798544793 52.85967043439152 21.056904378873742 99.06494635325805 29.901603351249904 140.67598344797204 38.427422987648846 180.78681121735715 47.41344597214887 223.0627255147014 57.604466105084114 271.0077056784096 0 0 9.442424121186763 49.4989206939923 20.096870988938907 105.35148712996534 32.16061282991774 168.59183653553265 45.567892235236165 238.8752565014898 59.98992216045866 314.4781849818141 74.87350668564535 392.5006674078579 0 0 11.475700523443603 67.84841561461943 22.844223880067215 135.0631617688042 33.79977544116421 199.83627205398346 44.09745415217148 260.7198044904487 53.59569052162526 316.8767499844578 62.284758627905404 368.2496054344815 0 0 8.529433755507961 57.76121232699972 16.634502145066275 112.64862802113225 24.54306421258871 166.2053055073055 32.536319438407936 220.33552393878074 41.00170027696561 277.66297076127205 50.35580779884339 341.0088629023372 0 0 7.7812923482199325 61.59527137655801 16.28043960891156 128.87294950047394 25.49744178207488 201.83303437174777 35.291761586865896 279.36305886220504 45.39952042188386 359.3742087573967 55.46930956531825 439.0847975950529 0 0 7.679939857096121 73.06974678692262 14.90862203906783 141.8460635899464 21.308657598016083 202.73833441776424 26.64025735624343 253.46511764158424 30.84596447538366 293.4797479608029 34.06992870655563 324.1537186435505 0 0 3.9098330799405003 46.56096034341228 7.458422266484448 88.81998189536273 11.000919155998137 131.00645221695976 14.825518646237931 176.5523928117434 19.103710483670298 227.50002060337022 23.9931945933497 285.72733391209886 0 0 3.355806213929286 53.33901235462075 7.085008848352261 112.61299085931721 11.132781938403282 176.9505017569242 15.378353895977193 244.43193562443963 19.652021110130413 312.3599308075547 23.75984588139373 377.6519358451401 0 0 2.6617237779883203 63.50680543885415 5.37157963558379 128.1620075070869 8.148344391165335 194.4136075192646 10.998921182084528 262.4263093429821 13.916728969935765 332.04309415868096 16.88202463950222 402.7929055076856 0 0 1.4269070251624516 68.11982993453823 2.859139390170704 136.49388893813463 4.300870003442016 205.32138957804364 5.781549816797005 276.0083056101253 7.318552501187968 349.3840474232411 8.920793311111785 425.87422482198315 0 0 4.496829695139823e-15 73.438802081885 9.128672998454685e-15 149.08254371481513 1.3853730606845621e-14 226.24859047508437 1.8609226547914e-14 303.9117329318211 2.3320794203175314e-14 380.8574720386672 2.76931730469085e-14 452.2638374785214 0 0 -1.455134520571005 69.46739649129431 -2.7208041651375696 129.88983426811205 -3.766171098296504 179.7951304438525 -4.601514598515539 219.67401264738254 -5.278231058133324 251.9801190230368 -5.882796738981231 280.841783194134 0 0 -1.8307290291302052 43.67987137722652 -3.7013302748211077 88.31106502180336 -5.725565931210257 136.6078646581111 -7.994544470122481 190.74405257034445 -10.560932794308721 251.9762229903057 -13.428349156281133 320.3907048076483 0 0 -3.7148619613397638 59.04604003328447 -7.699967522124949 122.38747907672179 -11.810211890272324 187.71794250548527 -15.866522111613664 252.19114721922458 -19.92402799798084 316.6833564843353 -24.2253102721438 385.05028047714165 0 0 -5.628085705298895 67.0230851230446 -11.562022488899226 137.68845359594505 -17.801810350800984 211.99610541870132 -24.287571621936355 289.23297644818507 -30.906877518470452 368.0601880063137 -37.510005952244526 446.69474729857177 0 0 -7.805552329558376 74.26486962992445 -15.41291693734794 146.64410904458836 -22.656348485554282 215.56075669343718 -29.430534037794498 280.0128269179796 -35.710239142615336 339.760229950287 -41.55877288558504 395.40531150371936 0 0 -7.886813909437937 62.430560542989014 -15.535993903236795 122.98005495106904 -23.181166254484456 183.4978256017737 -30.643641920774364 242.5694030771064 -37.34475196838544 295.6141511003839 -43.01979329606866 340.5367288688178 0 0 -7.43112521115361 50.32348142369766 -13.88872428864052 94.05425677516712 -19.515740513838807 132.1603360610592 -24.62705183086305 166.77406854492816 -29.66511266927835 200.8917497586582 -35.13556102766769 237.93755352596776 0 0 -7.294935316074963 43.130247447264004 -16.002624142563356 94.61319520591428 -26.674196127212277 157.70731741628705 -39.51226939094857 233.61056434308415 -54.323679932017626 321.1808818305653 -70.52893574515562 416.99210741150955 0 0 -14.510976898677264 76.06920484415856 -29.373130301085343 153.97934139024755 -43.999581163449996 230.65388195089423 -58.43349693904488 306.3191182408882 -72.58899547272631 380.52484023662464 -86.4220065578034 453.0400238241724 0 0 -15.70104680218826 73.86761753590528 -31.148821405180232 146.54368305757788 -46.4217351747919 218.39709303756098 -61.63754963744266 289.9818718987855 -76.93576922727775 361.9543364025368 -92.01348338316717 432.8894044024437 0 0 -16.422754546016535 70.01877131152598 -32.20026064909304 137.2865118481145 -47.2274958602291 201.3554561135126 -61.53946766242485 262.37485927313793 -75.311213470681 321.0909971540787 -88.83723997391368 378.7595054320161 0 0 -15.884267476486478 61.8651372598405 -31.75915724778654 123.69375076941057 -47.59791313102387 185.3816320766275 -63.37910696236772 246.84532399351716 -79.09035180350158 308.03658258057686 -94.73079666322712 368.9520934459175 0 0 -17.011903772744386 60.92979262883354 -33.97797079476247 121.69541646422448 -50.92281268385966 182.38502041585258 -67.8768024900504 243.10738852479895 -84.54274747667112 302.79809601782256 -100.39519841225149 359.57519522239033 0 0 -17.317983177487225 57.35992762390075 -33.812816003572884 111.99344974803398 -49.48449847825697 163.90056637239968 -64.49418198478132 213.6150366296006 -79.14445101438037 262.1390687063199 -93.83825915533272 310.8073092772063 0 0 -16.615371100171146 51.13685409905423 -33.021458714979296 101.62959986060412 -49.043238066547794 150.9395664071809 -64.56950015472609 198.72448762983552 -79.57359774877644 244.90235178521513 -94.12238436497431 289.678912839763 0 0 -16.30270437200432 46.81499000452418 -32.38268197071804 92.99039583777152 -48.45890333248414 139.15501522779175 -65.41257927150497 187.83934093930702 -84.67040607796417 243.14028665242634 -107.0334652104846 307.35824496597786 0 0 -21.45586947111559 57.69309437942124 -45.59093485772754 122.5903294729617 -72.01180861493928 193.6339180496746 -99.85192982304106 268.493748016287 -127.89364026055375 343.89563508545285 -154.74539714945152 416.09783348761835 0 0 -26.48787284959295 66.90073008481085 -51.23881874928639 129.41448346854446 -73.57524466462351 185.82985550338518 -93.24803928766438 235.5176628468956 -110.4946904447884 279.0777312782637 -126.02766161513395 318.30953813505346 0 0 -20.609863391157216 49.02892756786959 -40.81522225788709 97.09557689776051 -60.93116503808612 144.94951376339495 -80.11294736266741 190.58117072129832 -97.9438778403397 232.99927812285472 -114.21013235700401 271.695168501257 0 0 -18.69059822017405 41.979770928779594 -36.2187562648279 81.34865847587716 -52.9443577774532 118.91497453890156 -69.40789133071965 155.89267632794395 -86.24963864298482 193.719860128094 -104.37891719559669 234.43888644161325 0 0 -19.349680741049067 41.12016469078593 -40.44703617687587 85.95432715946406 -63.57652274981652 135.10698811655004 -88.64332164575899 188.3766473252054 -115.17333879414309 244.75580360123726 -142.36889402496132 302.54930029579725 0 0 -25.404138660216933 51.17630547907038 -50.636551822423726 102.00667218563379 -75.20727752493065 151.50407814819445 -98.72392103660344 198.87804930669895 -120.95965147409281 243.67163780971111 -141.89888539940182 285.853451024951 0 0 -23.5679283259373 45.081288969172505 -46.32705485375059 88.61548278955811 -68.71165820093228 131.43327983979884 -91.25767900631287 174.55984000986487 -114.58724010153574 219.18517452007916 -139.29868621026355 266.4538112651965 0 0 -25.23584239413219 45.90382690437574 -51.82450578563311 94.26842606774522 -79.76599017450273 145.09379749010844 -108.79544847097992 197.8981861036278 -138.41559284359735 251.77702870090923 -167.96418209393946 305.52571301396347 0 0 -29.24565479905593 50.65496001258546 -58.95660832090397 102.11584105374376 -89.52199210863611 155.05663872693793 -121.18905646794795 209.90560312381965 -154.0170460277538 266.76534895174404 -187.8573257646872 325.3784327984563 0 0 -33.286876305731965 54.96316564412631 -67.05582722313018 110.722331083802 -100.83290822045143 166.49492088103545 -133.30319390405617 220.1097351444199 -162.49100100607225 268.30453305222676 -187.25511400663203 309.1949438068474 0 0 -28.739127612903765 45.2856188333991 -53.75352555882984 84.70200286509635 -75.59009757506028 119.11093448872282 -95.45357271750974 150.41076293597806 -115.0367901233051 181.26897585446096 -136.27433047697275 214.73398461775065 0 0 -24.16478074006675 36.370918896438134 -49.969521820166804 75.21017653603847 -78.05398860478846 117.48069720248684 -108.65338538119259 163.53649180728615 -141.5434824450007 213.0400675140707 -176.05159068307734 264.97894581374305 0 0 -31.64896551373916 45.53689358910912 -63.67209886936908 91.61214414894606 -94.88932291630394 136.5278431772618 -124.12456225815717 178.59183994152195 -150.49373326741917 216.53210480611975 -173.54317070791657 249.6958990401245 0 0 -27.106402616606182 37.308762490509274 -51.79274712300347 71.28660075163738 -74.8082671989154 102.96474647436389 -97.27819387240687 133.89194730207055 -120.53551528167291 165.90290400837148 -145.3673558634105 200.0810004370975 0 0 -25.843119879385714 34.047053085253545 -53.10156665047898 69.95873048985608 -82.00570289366208 108.03852370553679 -112.47874108214086 148.18526890171927 -144.13674358194496 189.89314692552156 -176.33372164072424 232.31109902527623 0 0 -30.6914549999388 38.722979044512506 -62.11999093872675 78.37592278927211 -96.38862470615216 121.61217819856222 -134.96962643668982 170.28928788693932 -179.16047830247874 226.04426694418876 -228.93398355517985 288.8428016137286 0 0 -43.71013018428695 52.83647100217422 -90.86898294087011 109.84173146842507 -139.65245834901995 168.81082336819188 -187.799360645918 227.0104305606011 -234.99792635123612 284.0636957354949 -282.89245010105805 341.958229670791 0 0 -48.87610944875979 56.623517786662184 -98.42816427612712 114.03012583153163 -148.65897123684923 172.2230757912796 -199.4386382728996 231.05188626832833 -250.52035346107903 290.23062289758934 -301.57379472316285 349.37660386820176 0 0 -51.49442927643719 57.19035759839792 -102.78211560728474 114.15110389407133 -153.6860305732612 170.68562890908584 -204.09272566851774 226.66793531305706 -253.97343403634352 282.06607427490957 -303.39335803560175 336.9524603503933 0 0 -51.34941475467992 54.68157277771216 -102.47995191562482 109.13006459182598 -153.6025743336959 163.5701280608352 -203.93239995614914 217.1659486911553 -251.6318659247024 267.9607207889178 -295.7685283457463 314.9614924602573 0 0 -47.56523038321556 48.572014055091785 -92.15484851209612 94.10543292046988 -134.19344323285804 137.03383245059564 -174.6327350918427 178.32907766916352 -214.8178076568248 219.36472269191853 -256.291652905344 261.7164190486889 0 0 -42.5647801399794 41.68251230580382 -82.64166924136086 80.92870170589023 -119.23981060757035 116.76824963377278 -151.9847343696157 148.83444810056756 -181.2045904513995 177.44864525364505 -207.91574787891886 203.6061431782985 0 0 -33.228041803362785 31.20320819927426 -65.85835781528914 61.845114519050476 -98.60362035438837 92.59496281266868 -130.73450132427956 122.7678684103783 -161.9709970334766 152.10089034401426 -192.16756022619518 180.45735064284483 0 0 -31.819249594977812 28.650181021840442 -62.885037061810834 56.62194169627406 -93.42680707241485 84.12187493383641 -123.79156635344039 111.46242699460218 -154.39206620646033 139.01524081979682 -188.82093678060562 170.01513512536417 0 0 -36.73117020800938 31.705495621654496 -80.69153016170058 69.65106044153578 -133.09472254261965 114.88428272073389 -193.5807033747573 167.09438083589404 -260.21029662339095 224.60750293502417 -329.6914535563359 284.5820287791427 0 0 -58.52965564503786 48.41994212256934 -116.24536048692565 96.16652558029085 -170.68084938910962 141.19947841436365 -219.85177277920477 181.87720389255117 -262.5982409502165 217.24015779983455 -298.8173891235952 247.20324299069094 0 0 -45.37665497093344 35.965093555618665 -86.75676090207484 68.76256137487995 -126.25417433997225 100.0678255114468 -166.4892799532182 131.95777726147156 -208.74706097119207 165.4508817826798 -252.80269807455022 200.36894947827366 0 0 -44.21420750970359 33.56041012372385 -90.15549134564351 68.43174252985534 -137.83102291520095 104.61944061286948 -186.9089211145421 141.87159290393515 -236.75856837739516 179.70953461751563 -286.53597425809664 217.4926421375311 0 0 -48.718263203034645 35.395890107563346 -97.83903807038344 71.08422205726914 -147.70698450554465 107.3154059267071 -198.54297750269487 144.24991679251946 -250.40302378718445 181.92844592252754 -303.16017968067723 220.25876333575872 0 0 -52.02065061309543 36.15529403722643 -104.46408768295555 72.60443231667458 -156.92281296043308 109.06419617721778 -210.28560438821162 146.1523023808114 -266.8345556237423 185.45484733788476 -327.6992222085967 227.7568926010249 0 0 -58.78723494613232 39.05814551546009 -121.15158843615993 80.4929229092784 -186.58264294739692 123.96521159017396 -253.936292015715 168.71486904077798 -321.59554963550596 213.66757232752548 -387.7055151193912 257.5909283802073 0 0 -64.81128402272074 41.13049153943331 -127.99112641579543 81.22563873787637 -188.88977008024946 119.87309320160358 -247.26165533366753 156.91701801745538 -303.3219674226356 192.493973895462 -357.7371932287613 227.02692627225167 0 0 -59.016862125570576 35.74188215878801 -117.64453672226647 71.24806397205253 -175.81630407611135 106.47813854473475 -231.80736828164504 140.38753234681957 -284.6257346814476 172.3754720591121 -333.75509617683247 202.12927098810871 0 0 -53.389668318265755 30.82453937549556 -104.1248507897098 60.11651063276856 -153.01389279955904 88.34261219757794 -201.2793169010224 116.20866779510926 -250.37526716764495 144.55422789766425 -301.29744388069713 173.9541603306666 0 0 -51.92162380769387 28.54415423768262 -105.55868587906966 58.03137864137386 -161.1991754864528 88.61999665331625 -218.75765660799541 120.26303942303407 -277.7739757704864 152.7075354379068 -337.46695187898086 185.52402675678357 0 0 -57.49265307012705 30.056432675456517 -114.21126421305839 59.70820601045155 -167.81375881503692 87.73091298617138 -216.4144796592788 113.13875583266231 -258.91143534972434 135.35562737038265 -295.2068958175268 154.3304355540396 0 0 -44.74578393696737 22.212000044819902 -85.71832015269082 42.55094365439107 -124.91335655815158 62.007528695368606 -164.80486767014017 81.80984678316021 -208.43719008393677 103.46911972775958 -258.92985199689224 128.53389477457836 0 0 -48.86993782260895 22.99644716438342 -104.29365332196673 49.07686801045106 -166.29836000849633 78.25406824417436 -233.62466075156826 109.93542056001789 -303.879536050183 142.9948554565669 -373.860275255048 175.9252916992063 0 0 -63.04570304694318 28.069755481942906 -123.56509718425367 55.014725769366805 -179.39497209482315 79.87178757673969 -229.14903636109946 102.02372419877034 -272.4757715010208 121.31402952382868 -310.17192199191413 138.09743704808187 0 0 -47.57188971248786 19.99738107419052 -92.50562077243174 38.88578236582584 -137.34395445963028 57.7340822944967 -185.1221780228572 77.81819813299177 -238.9369332161091 100.43983821325193 -300.92644613138185 126.49783002022349 0 0 -56.96549837356137 22.554236341213965 -120.66829347101104 47.775957158996434 -190.14704329006184 75.28454022860825 -263.24688920974194 104.22681666700738 -336.9223312320853 133.39698772420573 -407.6797707606625 161.41183986438045 0 0 -66.95198314290253 24.899219336358648 -130.26202560934524 48.44401307609787 -188.4796453437196 70.09495177813653 -241.05666839996738 89.64817137935573 -288.4734625021154 107.28231903494311 -332.21785635352956 123.5507132797801 0 0 -52.71297407924867 18.356599732266737 -104.56186580513197 36.412294152824124 -156.84356966924256 54.618709706451334 -209.13170375932276 72.82736450167656 -261.42826505942236 91.0389539619228 -313.73462496657356 109.25395565816451 0 0 -52.66671645953617 17.112453513617105 -105.34044613491774 34.22718575919631 -158.0190533580751 51.34350281611718 -210.69930819483784 68.46035521515024 -263.37736876137365 85.57649465256772 -314.1529263242932 102.07447339196798 0 0 -50.2320151565137 15.16593952411667 -96.64165067728426 29.177834596437577 -138.58720213426272 41.84194322755964 -176.25904006830976 53.21574167243442 -210.68248920404923 63.60879371658346 -243.59819551654255 73.5466313640171 0 0 -39.48873870358981 11.025453951973805 -79.44960925394552 22.182729484141678 -121.31290553343983 33.87117182391794 -166.2295365492459 46.412120539951474 -214.87221337780963 59.99339993962291 -267.3005953776796 74.63166721513633 0 0 -47.82749702838932 12.280014062507512 -97.94674931154356 25.148450863082076 -149.14560061163436 38.29408157790185 -199.9214344778288 51.3310998760223 -250.99517022168942 64.44460637599903 -305.1481495497273 78.34872825133478 0 0 -53.47763955997129 12.543067119619428 -109.88360156144059 25.772966067154652 -169.23004539357453 39.69254880158715 -230.95425424443977 54.16983128623363 -293.9869924680698 68.95402656444455 -356.8972427290398 83.70949255038244 0 0 -60.37758538449732 12.83365195126693 -122.98255020782277 26.14074801758567 -189.7221395277031 40.32668565068875 -261.81860965171245 55.651263448793664 -339.58188508525376 72.18035789914609 -422.30949739304117 89.76465472646 0 0 -74.71373922662386 14.25240800337606 -151.7422411878196 28.946380614087058 -228.85444633464215 43.656320461414566 -303.18836292224586 57.83627342136395 -371.62534501772075 70.89132596512519 -432.07647333303646 82.42299542689537 0 0 -66.08123909847814 11.176804988631275 -125.61224595890413 21.245721121760738 -179.52767043169172 30.36483258868695 -229.9225403872163 38.88848683011148 -279.75779595995806 47.31748938354518 -332.4300341963272 56.226331637627304 0 0 -54.738767308433765 8.083117905702434 -107.47215311689536 15.87010683541143 -157.40147064304364 23.24302698615312 -204.22487590097916 30.157305915997902 -248.20687636968802 36.65200269121116 -290.1667232182358 42.84809379919948 0 0 -46.81433842194034 5.914026275209498 -93.15510000465098 11.768225882672635 -139.49116632659914 17.621832340762005 -185.01916019683117 23.373355508286654 -229.37113883170454 28.97631340208529 -272.35572408827636 34.40652934031177 0 0 -44.42765568865583 4.669534775802964 -87.88113501790019 9.236679490336083 -130.65709467003194 13.732614017328833 -173.20419123578387 18.20449406464709 -216.05608466339868 22.708409553042827 -264.2072121354046 27.769296983168125 0 0 -50.51925606996309 4.242220458931618 -110.9322866453907 9.315244375558892 -182.90006722199405 15.35854775918671 -265.92984632471115 22.330753112375646 -357.36769300292536 30.009003626630623 -452.7081524320914 38.01496568977395 0 0 -79.06854151461232 4.974570979623207 -156.85640521358056 9.868568540616035 -229.48418224687336 14.4379209660379 -293.8301215334216 18.48622432537462 -348.0695675844884 21.89868102569976 -392.04070089116135 24.665110246454955 0 0 -57.239333195410595 2.399038861262074 -108.29052930060331 4.5387179339052235 -156.426620616409 6.556217915982877 -205.70493244946258 8.62159112187419 -258.85306113174755 10.849157709291779 -316.86563710628946 13.280605045159827 0 0 -56.55044610756711 1.1845629812126943 -117.70304573414349 2.4655273362024674 -183.47690858392338 3.843293356208885 -252.98766853671953 5.299336211811153 -324.5549141320311 6.798456300772208 -395.9296575628256 8.293544044215484 0 0 -66.47978890663452 8.14142606925017e-15 -133.5121585007768 1.635052375552304e-14 -201.57026875098558 2.4685238442916626e-14 -270.95734380442525 3.318270437955583e-14 -341.75027145725903 4.185233760478714e-14 -413.7747794305227 5.067279591974917e-14 0 0 -69.94292505688732 -1.4650954240489182 -140.45756382305882 -2.942166543118556 -210.99287609412954 -4.419670710382879 -281.9232125938023 -5.905449455658381 -354.6627240888767 -7.42912501472757 -429.8529758491385 -9.004136264220604 0 0 -73.49034583103246 -3.0801580964323887 -148.9819820493861 -6.244195112199194 -226.1893453813989 -9.4801423999976 -304.4723426233834 -12.761172105889589 -382.92631867102966 -16.049367946960587 -460.51351230129376 -19.301234841003858 0 0 -73.29188134114229 -4.611134326971946 -138.6175656559521 -8.72107801875517 -192.80434178171788 -12.130221008255738 -234.65316172536615 -14.763125589968267 -265.2147575758139 -16.685898223639708 -287.7435306661346 -18.103288486250214 0 0 -41.21657513564937 -3.4610525152111618 -80.5601816966657 -6.764827464908679 -121.0009437230593 -10.160733133146595 -161.98908982268966 -13.602603926270008 -203.77150933848475 -17.111171721648823 -246.47745788449126 -20.697290416450112 0 0 -41.72125219469202 -4.385080306249532 -84.09756631805222 -8.839010395563392 -126.92946257714414 -13.340824096854039 -169.9152524236923 -17.858812665966564 -212.69608880544433 -22.355259757896636 -260.0805400288699 -27.33556626721854 0 0 -49.48826201989572 -6.251821381351548 -108.6367310200531 -13.724010706180302 -179.0671709762784 -22.621444409536156 -260.2984630560877 -32.8833430483527 -349.73932904911567 -44.18235205693354 -442.9906767665028 -55.96273685333293 0 0 -77.02361415993374 -11.373857786566386 -153.86622647785995 -22.720987546506734 -229.9744388485846 -33.95967055736844 -304.90485916576756 -45.02443236931945 -378.3979961424744 -55.87695464289158 -450.4308368028978 -66.51383911747435 0 0 -73.66605246581766 -12.45968014409834 -146.45594291006083 -24.77116857467585 -218.83309135002486 -37.01284692064569 -291.371963782668 -49.28187883251134 -363.90005412651067 -61.549087090560306 -435.5416335045628 -73.6663532421945 0 0 -71.6445286545762 -13.666924774000833 -142.45340768400976 -27.174440856525585 -212.4231671872901 -40.5218863285558 -281.71438855610063 -53.73989372884155 -350.6321974672039 -66.88666889318414 -419.5849605276969 -80.04011191813268 0 0 -69.67340110489184 -14.809538578712143 -139.99204034691033 -29.756226757310298 -211.5084177746054 -44.95750204643676 -284.57660255519784 -60.488624170869336 -359.28637513068594 -76.36867655266441 -435.43424101931566 -92.55440510446152 0 0 -73.39075656799875 -17.213646547726388 -147.44612019750062 -34.58317527441952 -221.52551641030226 -51.9583407926365 -294.1136267667962 -68.98372837106184 -362.9137582657768 -85.12065352952179 -426.58362386876234 -100.05428568544005 0 0 -66.78262561145164 -17.146863887796872 -129.3945957354356 -33.222885452283855 -188.43101942851996 -48.38086272884725 -245.22584015506303 -62.963294186331986 -301.6643439280086 -77.45423899967372 -359.90920767170024 -92.40897822461818 0 0 -58.91577139855311 -16.449578941368195 -116.10173175966311 -32.41618596301763 -170.8689462290029 -47.707466997392274 -222.95704885705015 -62.25072656518933 -272.59419970045377 -76.10966809885176 -320.4870721351813 -89.48159835016769 0 0 -51.64934532222251 -15.593856730142956 -102.89383201435581 -31.0654794332293 -155.86549847102006 -47.05856845166329 -213.95451172413647 -64.59667555860337 -279.487321991862 -84.38219748658159 -353.6752911734877 -106.78086595568178 0 0 -65.30441289767546 -21.218690001380992 -136.7198797403797 -44.422981794243626 -212.3854592609925 -69.00821890736796 -289.4867076452367 -94.05993311155443 -364.6759510345692 -118.4903992335984 -433.65397043653485 -140.90271634443258 0 0 -66.68652229047565 -23.222704061106008 -125.51444325202924 -43.70875359701666 -175.16445403739587 -60.99871665847273 -216.02794595983138 -75.22889012117928 -250.21292999976222 -87.13336107611957 -281.2980781040793 -97.95835494786189 0 0 -43.77507900612405 -16.279805951580034 -88.80589692279858 -33.02661701779961 -138.89512837629172 -51.65463521538113 -197.10322499336272 -73.3020323018414 -265.2189361236183 -98.63403819723466 -343.4008969412637 -127.70964879401373 0 0 -64.71402042574907 -25.622093248461887 -135.43922612557205 -53.62418311300204 -208.99617823418845 -82.74744069459587 -281.44357199706633 -111.43139304971655 -349.21246905358794 -138.26299751972292 -409.663939854434 -162.19742798279546 0 0 -62.17352333603787 -26.135342665386055 -117.48656193015374 -49.386803093445934 -165.91062872003948 -69.74240642583152 -208.76405875226783 -87.75632968744358 -248.55186128767673 -104.48158181036591 -288.6266290790254 -121.32746301934645 0 0 -47.387388785631416 -21.098224809231148 -96.5015732421915 -42.96526858482633 -148.8211620214757 -66.25945031291027 -205.29372016960602 -91.40265313321221 -266.15951940899987 -118.50185290882082 -330.8739648530071 -147.3145803743272 0 0 -57.701537083878456 -27.152282322717312 -117.17299779854164 -55.13742748655542 -176.7084599955167 -83.15268946191412 -234.881758221138 -110.52696572719954 -290.8481513898017 -136.86275130065403 -343.8263533730145 -161.792400836802 0 0 -54.43790750167176 -27.023211964961398 -106.45863071879849 -52.846523230623724 -156.40707664824174 -77.64114711711878 -205.0563580988172 -101.7908601556222 -253.49912914757678 -125.83806054040046 -302.98881115473097 -150.40495203814572 0 0 -48.709346129925066 -25.464630773497984 -94.46325976446802 -49.38419877669803 -136.08467565684373 -71.14334916936576 -173.12875100558256 -90.5095237549396 -205.98530390698087 -107.68651450928661 -235.86170638824152 -123.30552027455434 0 0 -36.421709622417445 -20.02300430573816 -72.15525659845605 -39.66768799516425 -108.55559351189359 -59.678942554710744 -146.04168065945032 -80.28709335658365 -185.10647621175087 -101.7631464484203 -226.00689034620126 -124.2483393954453 0 0 -38.64873261530511 -22.31385617928428 -78.58674926514159 -45.37208084296713 -119.42143651711612 -68.94799852016881 -160.55901504797706 -92.69879055877075 -201.29320693946966 -116.21668721254588 -241.42339453767465 -139.38586182499972 0 0 -39.57725488660022 -23.968837538590222 -78.89989110350109 -47.78347252963634 -117.9251630462937 -71.41801731492404 -156.66575179286232 -94.88015182820548 -195.18995689538963 -118.21123974856644 -233.613727318872 -141.4815022652412 0 0 -38.344453512761255 -24.334130152982798 -77.22479755380263 -49.008346776583295 -118.2619252740738 -75.05129994365129 -162.76107684662523 -103.29132025593445 -211.48500578310166 -134.21246581119215 -264.50135685230316 -167.85766528508276 0 0 -46.85448549520455 -31.130045735279364 -96.25802676303505 -63.95368007674981 -146.86237605804112 -97.57512936400792 -196.99621480025016 -130.8839721873875 -246.14180652066602 -163.53622525930516 -294.99175095656415 -195.992050745021 0 0 -48.249139583946544 -33.53402558678543 -96.2233994922539 -66.87700482216114 -143.92163833116615 -100.02814441680121 -191.39667795272692 -133.0241565142433 -238.7488867942982 -165.93479899567706 -286.11259349927707 -198.85343270035395 0 0 -46.70931042562518 -33.93630047802087 -91.9170783255771 -66.78166645353153 -134.33757325306507 -97.60196007738725 -173.14683598897167 -125.79853993555705 -208.13593723436463 -151.21961000702035 -239.77843179097073 -174.2092279945728 0 0 -36.68208507132814 -27.843218018030075 -71.83427999770045 -54.5251862116074 -106.93115319416958 -81.1651629266787 -144.38247231531028 -109.59226136792289 -187.29636216451368 -142.1656766672358 -237.60820279015516 -180.35444223779115 0 0 -44.596013265558625 -35.34636456413157 -95.13979764869983 -75.40687442672746 -150.78266821989556 -119.50887020138578 -209.62228841990733 -166.14457851055997 -268.9700521699391 -213.18303643465975 -325.74176625721515 -258.17974255523245 0 0 -52.270545324893554 -43.24195574796717 -101.92905805106503 -84.32305020504599 -147.93523940659873 -122.38267338180097 -189.8959341086179 -157.0955789422973 -228.15566620789627 -188.74678196845292 -263.7815198279139 -218.21905121961547 0 0 -41.041287838592666 -35.42588936057965 -81.47829465258104 -70.33017733271069 -121.7410243749703 -105.08403335471984 -160.40805848316478 -138.46052187052535 -196.75317759775723 -169.83278712726764 -230.39852625719732 -198.8746730396938 0 0 -35.6183874967822 -32.07094015347031 -69.3531306512113 -62.44583932306714 -101.77783780004789 -91.64117677505268 -133.76002070400008 -120.43806360724447 -166.33155160317753 -149.76560175783592 -200.74051277546914 -180.74756955745463 0 0 -34.268085564084664 -32.17987429937756 -70.77793078999319 -66.464901044228 -109.90588424555543 -103.20849506371846 -151.5402968953615 -142.30581093488482 -195.0798334909608 -183.19215727248067 -239.50363522075847 -224.9088838428039 0 0 -39.899801921667546 -39.07277282132454 -80.0643968232423 -78.4048500865385 -121.29325562052111 -118.77913155869115 -164.23070407667862 -160.82658764251968 -209.25317887091654 -204.91585236976545 -256.3940642771108 -251.07961803678404 0 0 -43.495885841347814 -44.41653622622039 -88.24058569849417 -90.10831933843014 -133.57357629087045 -136.40084517026628 -178.67605793196213 -182.45798301109687 -224.54073644602056 -229.29345067243332 -273.7746672673914 -279.56948551083275 0 0 -47.15361300539699 -50.213497731280206 -97.42563449514212 -103.74776321234235 -150.82901316020076 -160.61658539853835 -206.76450458139587 -220.18183379752637 -264.0934658747001 -281.23097689306184 -321.29198815057345 -342.14121654327516 0 0 -52.17187344564029 -57.942735570812964 -101.77347900862303 -113.03089946468293 -146.6039654865095 -162.82019879290456 -185.25291933369084 -205.74421062064005 -217.36270547982434 -241.405740963025 -243.74393213396553 -270.70506144165967 0 0 -35.14708171009449 -40.71828606667672 -67.69676554205509 -78.42745772939826 -100.15252593491192 -116.02781804063014 -134.7566773578384 -156.11711331570947 -173.0507062434866 -200.48117277512034 -216.3410927696628 -250.6335682726841 0 0 -38.946036184511044 -47.07767061861273 -81.8748657734617 -98.96971143777391 -128.21818567096128 -154.98916202245672 -176.70213826692753 -213.5961930380828 -225.52635795446787 -272.61453631109976 -272.62558295013076 -329.547719196078 0 0 -43.78872327326323 -55.24761904249601 -86.42392708347307 -109.0398587295544 -127.44619722523932 -160.79708259075983 -166.68190942181187 -210.30023130715114 -204.28321154387663 -257.74126771686196 -240.72134667842712 -303.71475262460336 0 0 -38.11022230214615 -50.2083636909099 -75.95605466523355 -100.06840650058129 -113.94371235174214 -150.11529727357487 -151.96485599686727 -200.20630416783976 -190.03442823943868 -250.3611133830238 -228.16031007858447 -300.5901077520409 0 0 -37.01213531932677 -50.94283389155391 -74.06317741460497 -101.9392183661112 -111.1412783745594 -152.97284617279735 -148.2285196967689 -204.0190546088379 -185.3035880042048 -255.04850832742645 -220.50881245465635 -303.50434276715765 0 0 -33.35566576310022 -47.99251342950865 -63.11043430949351 -90.80401475575219 -88.65978387286901 -127.56471114670748 -110.18305424049382 -158.53263873962302 -128.64615913600593 -185.09756524840617 -145.68888524837254 -209.61883451738962 0 0 -22.310849747231497 -33.58052843085437 -44.96369168683285 -67.6757964914905 -68.99500798581262 -103.84583525520372 -95.23865556010128 -143.3457002752296 -124.18205550243682 -186.9090192729649 -155.8684347355711 -234.60085399750886 0 0 -27.26504702170364 -42.9628394963941 -56.128910323320675 -88.44501032434476 -85.74594326662083 -135.11398660337096 -115.06786303909065 -181.3179389350127 -145.00673852472875 -228.4940579113748 -178.24735053745596 -280.8728811544779 0 0 -31.151924162416112 -51.43794065102156 -65.32360863018422 -107.86209822261488 -102.52759247353193 -169.29317718063643 -142.18358785675161 -234.77300842137328 -183.18897188729554 -302.48094514908894 -224.0680432269 -369.9803148340068 0 0 -35.997865000457494 -62.35013114479776 -70.23850565678038 -121.65666044525747 -101.2172580633742 -175.31343356857457 -127.96985968777548 -221.65029881668718 -150.25180486730096 -260.2437599590897 -168.61728504951097 -292.0537047400767 0 0 -24.02620182321109 -43.70349887423302 -46.300297533658565 -84.21992856082915 -68.51103605375377 -124.6211119460078 -92.72416814687878 -168.66463571892666 -121.09710205224667 -220.27481089834288 -155.10333450809622 -282.1319181010034 0 0 -29.052585589600827 -55.57247069633226 -62.5320231344579 -119.61272818574557 -99.80664701304596 -190.91250757443794 -139.46057182050714 -266.7634698772901 -179.49270154263073 -343.33787145794645 -217.60750958895954 -416.2447749319391 0 0 -33.65034034592664 -67.78817105555517 -64.57074070776255 -130.07691367411556 -91.67394313388706 -184.67596091489236 -114.549045276754 -230.75755536633355 -133.55612303363532 -269.04706521985497 -149.81042880088376 -301.79115185946944 0 0 -21.718368499695455 -46.15388240634271 -42.82116161867512 -90.99960053993193 -64.34888063237128 -136.7483321653693 -86.27233717343891 -183.33804884464882 -108.77081486846626 -231.14974767794644 -131.93788944444128 -280.3822872074934 0 0 -21.507131266946192 -48.30580772674634 -43.468188222484194 -97.63114924268967 -65.74494118418852 -147.66555559785724 -88.12833483068728 -197.9394808526675 -110.36970580945747 -247.89441797303138 -132.82964247352328 -298.3402616600828 0 0 -21.567144521262826 -51.306209386737564 -43.86896842255081 -104.36015195468173 -67.02881031914691 -159.45523867508737 -91.01008009592321 -216.50442510373577 -115.61570550867684 -275.0388948975353 -140.51112619771902 -334.262760411287 0 0 -22.493260533025364 -56.81149106204577 -45.204836533768926 -114.17438405289455 -68.79456390977626 -173.75523423735126 -93.79396954887495 -236.89652528925757 -120.51363393558533 -304.3826939688807 -148.98110088943557 -376.2833080231749 0 0 -24.827102066222782 -66.75806564736891 -50.65046775793647 -136.19500345368755 -76.94315286255578 -206.89390313106014 -103.05194534536774 -277.09833044972027 -127.96386022319541 -344.08445087487814 -150.4746368108043 -404.61410500851036 0 0 -21.936656689815848 -62.99349728931787 -41.73085068782499 -119.83467977163754 -59.373685761401 -170.49800094669865 -75.27686512960707 -216.16571141817226 -90.22267883255955 -259.08424218137077 -105.25810899525555 -302.26011636265514 0 0 -16.27987954034423 -50.104317248513645 -32.344311215572574 -99.54555414944058 -48.00881281812895 -147.7559328496837 -63.1551590885444 -194.37159341449708 -77.75337194052067 -239.30027278120463 -91.87139908070141 -282.7510924879323 0 0 -13.958478076281855 -46.232709894080344 -27.708418914996532 -91.77471113397449 -41.45081892421473 -137.29173594158382 -55.54370934053109 -183.96964098437874 -70.4704731738458 -233.40946803369803 -86.52656382767913 -286.58980597419816 0 0 -14.230763623535504 -50.968867924185716 -29.32013640087363 -105.01292827770013 -45.14560375726334 -161.6933831615362 -61.432547932356215 -220.02666228198981 -77.79284676331389 -278.62266825711583 -93.78127186588387 -335.88677220308296 0 0 -14.598417635021585 -56.85708277728225 -29.53651390527231 -115.03712649209552 -44.94957321235104 -175.06702910095044 -60.8887229617833 -237.14591870120864 -77.3091599380856 -301.09929828948793 -94.07211647085605 -366.38670347299535 0 0 -14.657841972751136 -62.49402815677419 -29.389128602347412 -125.3011892059194 -44.06448319550929 -187.86988280083125 -58.67506241638869 -250.16240518671984 -73.19149134433323 -312.053515750283 -87.59844848717367 -373.47789097631244 0 0 -13.214773388423763 -62.170620773112915 -26.358708157301397 -124.0079720437952 -39.453376119221204 -185.61354121106586 -52.531401976302824 -247.1408154308297 -65.63159157070754 -308.7723618365423 -78.22797259841177 -368.0336752899427 0 0 -11.133328098418792 -58.362949760676976 -21.312111418145328 -111.72200055505611 -30.376100148948826 -159.23709345906906 -38.372834625153004 -201.1574436327483 -45.558364338336794 -238.82530951680124 -52.3673725710056 -274.5193806777621 0 0 -7.467638369530645 -44.15132921258506 -15.177191151085164 -89.73294231386441 -23.860827064525125 -141.07368071127178 -34.10795970586779 -201.65836683894 -46.263058862306394 -273.5236283729243 -60.35667382500455 -356.850083568238 0 0 -10.161695497736128 -68.81486720827402 -21.34559734402879 -144.55210225871022 -33.01103968934004 -223.55032318524871 -44.48780084560201 -301.27079760068403 -55.48815999412341 -375.7650839348364 -66.1441142730499 -447.92706505748777 0 0 -9.23339367932078 -73.08983700303538 -18.18758056996229 -143.96952469548597 -26.861401310525864 -212.62988578689942 -35.30850926642279 -279.4956303967368 -43.630852859323106 -345.3737633794827 -51.96487531320592 -411.3443440662082 0 0 -7.220410398665403 -68.69761604196131 -14.54188344860907 -138.35677898089403 -22.05095637775506 -209.8008355421258 -29.803086492044038 -283.5574267460254 -37.81233596322191 -359.7603452196012 -46.04683176540378 -438.10633937832563 0 0 -6.2894168403929465 -74.89866756490294 -12.66255667706867 -150.79436570120134 -19.0387239866661 -226.726117050966 -25.377556314915214 -302.2132579658505 -31.693844711445532 -377.43193035809435 -37.97964334888589 -452.28750989321554 0 0 -4.7321809199710145 -75.21586184176219 -9.445666374885024 -150.1345677757989 -14.143124012694631 -224.79851885212042 -18.830533395485677 -299.30275748844684 -23.516345544658353 -373.7816088233999 -28.210254919750298 -448.38916187883774 0 0 -3.124620997624569 -74.55119851552531 -6.223294610218937 -148.4833111790974 -9.285686727560073 -221.54977359032847 -12.307891827371392 -293.6574028106254 -15.293332339450284 -364.88785554120875 -18.252608454094936 -435.49404466073594 0 0 -1.5105074830813827 -72.11087411293546 -3.017959297307606 -144.07587211826254 -4.526469492943975 -216.0913967244078 -6.033418263552822 -288.03237967825567 -7.538092343245367 -359.8647700219056 -9.040121561542312 -431.5708960012406 0 0 -1.3197750129927396e-14 -71.84520543183653 -2.6379012190116357e-14 -143.60065399254955 -3.954880713598103e-14 -215.29367849035577 -5.271472854242716e-14 -286.9656164216992 -6.588580867795342e-14 -358.66563716616463 -7.85147627148084e-14 -427.4144608849585 0 0 1.4110774274482565 -67.36413283220097 2.6972404003919457 -128.76491188790183 3.837518171228359 -183.20120413242995 4.838132003811822 -230.97000960030834 5.732589265508139 -273.67095330302163 6.577773851477063 -314.01964403355004 0 0 2.1038603783005145 -50.19658794806467 4.239736238130862 -101.1570421445208 6.504609645438544 -155.1952845838742 8.976521356130256 -214.173311293907 11.701086074116002 -279.17945613943266 14.682349137834443 -350.31023797161157 0 0 3.975256532950176 -63.18489322884563 8.182220343601996 -130.05266817377003 12.49833671262742 -198.65537335258637 16.771684021638837 -266.57828378908 20.811798389024496 -330.7940627758364 24.42071595169319 -388.1561648134875 0 0 4.986588027859673 -59.3836930290748 9.42974731024754 -112.2958657272182 13.327221346476751 -158.70964614443974 16.783437329001032 -199.86862454845635 19.996820601104663 -238.13578533038884 23.232934798922095 -276.6736414870573 0 0 4.807524826385374 -45.740543320953826 9.780080218038991 -93.05124758595608 15.058977405770854 -143.27659934640792 20.734775566803044 -197.27821161907477 26.83043756746426 -255.27456148312143 33.29391625272676 -316.7704533368086 0 0 7.010020155537413 -55.49002331653102 14.22481403511592 -112.60099756751511 21.44701265332224 -169.7705863602542 28.581639769613624 -226.24697533682945 35.672436491870634 -282.37641101898095 42.70397686178609 -338.03678437318933 0 0 8.24220414482897 -55.81609721096805 16.42797087441439 -111.2500009940354 24.565353219518855 -166.3562463667761 32.67240213674513 -221.25707416802257 40.77462936396873 -276.12524954848675 48.901300299874265 -331.15895740012166 0 0 9.262987470372503 -54.76607048423191 18.428491532479505 -108.95578445009568 27.457687299544943 -162.33959538330302 36.33590186244388 -214.8307518359096 45.07599316893521 -266.50527455991346 53.71778575923092 -317.5986203756145 0 0 9.967738447788923 -52.25271483182949 19.9096846146852 -104.3702217922441 30.18493629157285 -158.23497742463002 41.53527784197117 -217.73555154015463 54.449530617991826 -285.4344354049552 69.18219678685863 -362.6657761014101 0 0 14.376206791658678 -67.63473533212603 30.18637313146073 -142.0157199302215 46.993828925748815 -221.08858252375728 64.13816459272252 -301.74634030960715 80.83384805612964 -380.2933554298737 96.94110051230486 -456.07202031616646 0 0 17.659870507923777 -75.29324213065142 35.187805399160354 -150.0239738890762 52.56165520727425 -224.09776054322793 69.78799087945048 -297.54261746939176 86.90220315725298 -370.5094338642107 103.96437325239773 -443.25436728100317 0 0 18.819964466564695 -73.2989221361869 37.54637174359093 -146.23346307689158 55.896358441160515 -217.70194265530887 73.64210207913302 -286.81705089471956 90.65047575392258 -353.0602927385835 106.90967311068887 -416.3856854707437 0 0 18.623659196000776 -66.70245188080672 36.75964073752114 -131.65823867614463 54.665887312681406 -195.7912072821192 72.66215054626886 -260.2465793300823 90.20806473737608 -323.0889823573249 106.00770062376193 -379.67691931185345 0 0 17.560064855152795 -58.16174082395165 33.34468163373778 -110.44291390925856 47.346478072440526 -156.81910114176708 59.90663056196222 -198.42033324601576 71.6734189310972 -237.3938166073312 83.51447201050647 -276.61327655625996 0 0 14.780998122938676 -45.49123458598672 29.91443485574781 -92.06716367943667 45.70209389325272 -140.6565819897017 62.33737304924193 -191.85470678440436 79.86931172847281 -245.81246583223933 98.18675823649488 -302.18776939306724 0 0 18.091554393466613 -51.951867541122446 36.57125835568383 -105.01834881544393 55.064998035220526 -158.1251351797078 73.27263417417713 -210.41034408744142 91.03441520510597 -261.41523152522126 108.19251636083098 -310.6865864963184 0 0 18.617386196692905 -50.0606428646441 36.711921195690294 -98.7153812267627 54.35821041187745 -146.16482300149931 71.72348269935021 -192.85863302650145 89.04408557058674 -239.43233061093065 106.59114144831392 -286.6149419797001 0 0 18.616269173822605 -47.019328666221355 36.889491437470724 -93.17221974138623 54.6830409006172 -138.11359561721417 71.94528317513237 -181.71304271602864 88.7214657480333 -224.08484314470678 105.15173231876506 -265.58295948313935 0 0 18.145749875365865 -43.16703315392707 36.20646521765403 -86.1317771473727 54.176500324652814 -128.88080138550217 71.70003535683759 -170.56764391909414 88.57395316851942 -210.70910815267538 104.69253868599382 -249.0537078636971 0 0 17.692405603786835 -39.73779360493431 34.8213632252774 -78.21006232144907 51.558454331688765 -115.80218443463423 68.16317469947873 -153.0969970010869 84.94418468379217 -190.78776252910873 103.68774918344972 -232.88649766938522 0 0 20.46464417787178 -43.48958260314929 44.601147092716914 -94.78226221891934 73.02594359277833 -155.18802958153015 105.5561597093939 -224.31825772552003 141.2068468223011 -300.0798242878293 178.30590358611263 -378.91933303302824 0 0 32.38850655696616 -65.24622337091357 64.80652890149072 -130.55190591030149 97.34095370223449 -196.0920796771884 130.0626490271371 -262.0095074686955 163.01287434061135 -328.38730593691395 196.1952887368318 -395.2328462792599 0 0 34.26390909015216 -65.5408131569484 68.67345818592956 -131.36020995044993 103.1516153089266 -197.3108417960069 137.60288986611553 -263.2100520358688 171.71719867094873 -328.46470623989325 205.0237379143437 -392.17423978180085 0 0 34.89245601395561 -63.469141870436815 68.99047855801695 -125.49321462372187 102.29076887464606 -186.0662178421692 134.94598811315385 -245.4658411254976 167.24621245242082 -304.2197310842878 199.57966692229687 -363.034066426262 0 0 34.54397265871636 -59.83191574016688 69.63023435967864 -120.60310365389154 105.72313261263443 -183.11783722042492 143.12024410831685 -247.89153438726498 181.89702463134603 -315.05488840709876 221.8824476703254 -384.3116726727461 0 0 39.32619261846667 -64.93526214922713 79.23380714363736 -130.83056597595444 119.1624462278514 -196.76058547593033 158.53220810420424 -261.7677890208052 196.84052129000779 -325.0223324582685 233.71146837163707 -385.90350236108804 0 0 39.139761932997274 -61.67439610560303 77.06463065651968 -121.43442683628561 113.94795876559556 -179.5532521726836 150.1783179994975 -236.6431632014001 186.3048837053444 -293.56952180040537 222.9576339567432 -351.3250145710125 0 0 38.460189414284976 -57.887238662557124 77.11513900413662 -116.06761495487336 116.04241624385035 -174.65787731124846 155.2713358487002 -233.70214792518263 194.77620917887035 -293.16176228548704 234.4774715722142 -352.9169659484908 0 0 40.47118749181359 -58.230407481709356 80.98967194721496 -116.52886637562206 121.47570312084295 -174.78063111651136 161.93198375533683 -232.9895904414011 202.34503685805453 -291.13635349912516 242.70782782220988 -349.2107988169762 0 0 41.620717725015105 -57.28600339374493 83.20464516935948 -114.52136931032561 124.76298572808493 -171.72151790013925 166.3126831524315 -228.9097702360576 207.87389138997656 -286.1138658471522 248.05805138144981 -341.4226171487371 0 0 40.67703418680099 -53.59001346479873 78.49516015718712 -103.41355445009673 112.9744219055581 -148.8383042700107 144.25720505429976 -190.05184905448817 173.11039033192728 -228.06451685198752 200.8358753923102 -264.59149447972504 0 0 33.351080208680415 -42.07859093142254 66.52328084757737 -83.93149201424617 98.97742524192863 -124.87843158724957 130.2786281818636 -164.37072107021976 160.1728734674369 -202.08787178031412 188.63763368074152 -238.00146118977895 0 0 31.097173588363678 -37.59002555297379 61.311272929801895 -74.11259771142036 91.10937405900495 -110.132314413133 121.07047505527399 -146.34906410727274 151.93241325805528 -183.6547389256089 184.47140143567896 -222.98761892478916 0 0 32.82556326056646 -38.02878105693931 67.27690996428862 -77.94105036098016 103.36079091610036 -119.74462879491291 140.76478981134136 -163.0775785862084 178.8952747516217 -207.25217056132323 216.95775526081331 -251.34797864474214 0 0 37.078630355209626 -41.17999090522146 73.61568844639021 -81.75850487632788 109.14744052168726 -121.22051340496095 143.3767032165704 -159.23596092727425 176.2281204811708 -195.72115607121532 207.87249277017295 -230.86579195929522 0 0 34.44517943919089 -36.680390523317676 68.31699936835724 -72.7502151828376 102.16808627949902 -108.79796142063785 135.84708200677468 -144.66244916094723 168.3884578064247 -179.31549472293716 199.38867912547914 -212.32737745386095 0 0 32.74626598238965 -33.43938584411161 64.20537759403409 -65.56437292082083 94.56099834431052 -96.56251223086925 124.22481199986791 -126.85420139535162 153.7786585470003 -157.03359584596456 183.8899867989802 -187.7822718702218 0 0 32.35265677724355 -31.682062254475827 67.19616867260132 -65.8033500557847 105.52257289175816 -103.33533801034511 147.7067854480313 -144.64517100384293 193.42026545888987 -189.4111180339326 241.64543299377374 -236.6366912099632 0 0 43.22154891220547 -40.58773602680893 87.04153574782875 -81.73744266955882 131.0842294564527 -123.09628498653149 176.87532512780132 -166.0969860317966 225.2104722532316 -211.48671041046026 276.50367553965077 -259.654234420011 0 0 49.345375193038414 -44.43077539120608 100.83395031002743 -90.79129666167611 153.8130770159916 -138.49391661109394 207.29570531546665 -186.64989143161938 260.1077767852116 -234.20209417072437 312.18543478988573 -281.0930280556926 0 0 53.07332927730554 -45.81166893129138 106.2591007387966 -91.72039535239848 159.57619127645341 -137.7424733593885 213.01900079780512 -183.87306908210942 266.557367528637 -230.08614757544817 320.14008723128006 -276.3375105270714 0 0 54.34994601812636 -44.96218560591446 108.5247700655733 -89.77949771836244 161.99476553473173 -134.01372492127263 214.3333885356066 -177.31199942072624 265.2913749498722 -219.46811200449477 314.8466187978156 -260.4637750157235 0 0 52.23775768835044 -41.40313655999344 103.61664382474034 -82.12553991613335 154.5909331433664 -122.52726378603737 205.72375494018868 -163.05463894984092 255.66381089648414 -202.63663955767572 301.4016417993825 -238.88799762951925 0 0 47.80409677621447 -36.28528438628791 91.56805936937717 -69.50394001736551 131.2751117704253 -99.64323320928597 167.70162047338027 -127.29245820508099 202.32278350349677 -153.57135125085173 237.1129401519192 -179.97851743455885 0 0 40.11589561985188 -29.145904216846382 82.16905699625698 -59.699314393877174 127.81831264997847 -92.86543999809501 178.1267213706945 -129.416638449971 233.36384034339437 -169.54875450812926 292.9186968613109 -212.8178905176529 0 0 53.0953938268634 -36.902260029584 108.22563483367207 -75.2187756912039 163.42945711457054 -113.5864316705437 216.9527450743575 -150.786085869757 267.5930289951695 -185.98200006358454 314.32952243010885 -218.46470918955924 0 0 50.074930472699464 -33.26970426269248 96.91416993980812 -64.38962056112307 140.9794177738752 -93.6665012250101 183.3055781722291 -121.78793495912683 225.35529963541816 -149.72570310383963 268.8064369498482 -178.59456971398635 0 0 47.37263456427248 -30.06358806999427 99.36559963188536 -63.05932703844023 157.81904227865272 -100.15500974996891 223.42840074179793 -141.7919747301724 295.58425882119263 -187.58347469821317 372.39908979616837 -236.33164877252483 0 0 66.80116052389913 -40.4562208413482 134.70452107659702 -81.57995774718859 201.64764595557006 -122.12215525803514 267.2132156654932 -161.8300757038854 330.77603092208216 -200.32508493951664 392.0101746653147 -237.40980057736522 0 0 64.30012308305545 -37.12369337092818 126.92461120918826 -73.27995844841352 188.38372959091595 -108.76339699026113 249.44919133728973 -144.01955776771888 311.0389198363554 -179.5784040959704 369.8891403882921 -213.55559477349996 0 0 57.99016640341771 -31.880363761711767 109.19127628398046 -60.028412115984345 152.4635769095806 -83.81756069599214 188.14519177535823 -103.4336944662041 218.05723447365764 -119.87797909618297 245.29132463337902 -134.85004685972717 0 0 38.917806556853215 -20.34573758886573 78.39803131879236 -40.98550030988178 120.14590324948108 -62.81076032176167 165.53302781967724 -86.53857563605409 215.3612056087496 -112.58811746587982 269.70154427334893 -140.9965599957773 0 0 49.0583089476334 -24.3527560513554 100.86200431099829 -50.06833375480606 153.9589950510716 -76.42590885863483 206.54923607857327 -102.53193122055141 258.81814247129745 -128.4784416844949 312.8636018178545 -155.3068406934184 0 0 54.04177689054975 -25.43012989793437 109.78193332013801 -51.659456542882 167.22752153734072 -78.69129847112494 226.05217491459078 -106.37207920515041 285.6357541127958 -134.409983322607 345.1482922785611 -162.41445806769698 0 0 57.777272434248765 -25.7240990466137 112.86827228788323 -50.25219248378013 162.97281665817394 -72.56017290174788 206.61683536727693 -91.99174197318294 243.42655209023778 -108.38048375632644 274.24916046796034 -122.10359316211975 0 0 41.23935595440229 -17.335428995117013 79.67350735736686 -33.49165857761477 118.0062209093658 -49.60524761391253 158.08794817504938 -66.45405431652374 200.42937496658902 -84.2527512338146 245.82994594798242 -103.33739395849562 0 0 43.711084314189726 -17.306442574906484 89.94338856284728 -35.611106738207944 138.3371609464989 -54.77155667627733 188.08601386878246 -74.4685209537678 238.05026540384966 -94.25076757511549 286.9225469162778 -113.6006726797329 0 0 47.428438268190504 -17.63847808212102 93.0208291777744 -34.59413627231574 136.04592694978555 -50.595026703104246 176.2273752634792 -65.53837338007682 213.80734662225717 -79.51423944993023 249.53591473778937 -92.8015748255512 0 0 40.353496171673896 -14.052574151997705 80.2713740114047 -27.953449950882288 120.67836357365633 -42.024652472390706 161.9975123947027 -56.413502455425466 204.64311681210023 -71.26427314906623 248.83103679185368 -86.65213494662478 0 0 42.98345020918657 -13.966169585011164 87.07079119422555 -28.2910150255866 131.9258655725024 -42.865312167080745 177.0402768229452 -57.52387296630104 221.80930662261824 -72.07021252945273 265.4346886524422 -86.24495840662766 0 0 43.571770650194736 -13.155093152854493 85.6609387189172 -25.862562195490657 126.01860359130663 -38.04725960175945 164.718605095484 -49.73147893014672 202.15864027581392 -61.035291997499954 239.01386086027333 -72.16253912844473 0 0 39.55175376811256 -11.043048074120666 79.75127793377825 -22.26695689295346 122.5586029494531 -34.218976791846664 169.55178430838902 -47.339708781258146 221.65305038372674 -61.8866436495767 278.94418896684266 -77.88261695846519 0 0 50.90165018144396 -13.069322437298823 104.94509747942264 -26.94532126725292 160.46858112568623 -41.20132884320459 215.412144664296 -55.30843824301101 268.50691877816485 -68.9408591990346 319.4589184693684 -82.02310919320561 0 0 51.878616270687125 -12.1680195930577 101.7210174502459 -23.858449248186982 149.5187484821671 -35.06930584978724 195.66309567025831 -45.892364771865815 240.89755424149166 -56.502011245554115 286.2171850719392 -67.1316346922884 0 0 47.91112585811981 -10.183824178141661 96.76154773515755 -20.56730188845486 147.35555952850422 -31.321391076341204 200.20859227060473 -42.55564998983522 255.45134253206368 -54.29785904260668 312.78757618537804 -66.48505172706423 0 0 54.051756779585176 -10.310924053542458 109.07965951051617 -20.808057906158478 164.14286025473555 -31.311925214927307 218.2270071936087 -41.629028021805425 270.4059917629344 -51.582701669809474 320.0050549810808 -61.044228999154555 0 0 51.53146769615533 -8.715895359642957 100.94680799111539 -17.07387456007147 148.54797020317972 -25.125008505722644 195.01177703445262 -32.98377318791415 241.29479404233115 -40.81195956032251 288.4943307296711 -48.79516363314531 0 0 49.24935845416657 -7.2725125306922696 100.87546600488629 -14.895992832935928 155.82491465392266 -23.010221452312795 214.4554455197594 -31.66802500116012 276.45356817091476 -40.82311124009118 340.84831799244955 -50.33210058913488 0 0 58.96917953297746 -7.449539797877979 118.49963547386201 -14.969985295503324 177.28894218229584 -22.39680187125736 234.53073524238084 -29.62812200967862 289.5219541241252 -36.57512851100325 341.8963529713054 -43.191553763856064 0 0 55.06352998317936 -5.7874102099107105 108.2627506498449 -11.37887361481056 160.1653824248179 -16.834060035795094 211.6300323292374 -22.243212707214873 263.677980754223 -27.713672523570345 317.31174606896434 -33.35080841139499 0 0 54.154169308271385 -4.547452651674879 110.10859242125916 -9.246076839032328 168.1654975183142 -14.121251371370974 228.23522440784132 -19.16544727204456 289.83486848263885 -24.338113908210314 352.1446251084508 -29.570410361329138 0 0 59.418155269068066 -3.73827346757916 118.76113058692634 -7.47181701354381 177.80043387628433 -11.186255134881124 236.3524838578779 -14.870037876492196 294.30992882431974 -18.516411241427647 351.66324829315295 -22.12477625170161 0 0 58.19408835303095 -2.4390549585548653 116.02410409822876 -4.862850753773027 173.68261268589174 -7.279458269307602 231.40832262937022 -9.698882356160023 291.5956412851966 -12.221478416417222 358.3677368114005 -15.020058397571002 0 0 64.78429329750244 -1.3570374928302653 135.80089659121745 -2.8446232698405067 213.0756885485955 -4.463299411837774 295.4110464070779 -6.187979298156223 380.5313300560576 -7.97099506374559 465.3909241910398 -9.74855016245915" transform="translate(300 450)" fill="none" stroke="rgb(250, 250, 250)" stroke-width="1.5"/></svg>