<?xml version="1.0" encoding="utf-8"?>
<!-- Generator: Adobe Illustrator 19.0.0, SVG Export Plug-In . SVG Version: 6.00 Build 0)  -->
<svg version="1.1" id="图层_1" xmlns="http://www.w3.org/2000/svg" xmlns:xlink="http://www.w3.org/1999/xlink" x="0px" y="0px"
	 viewBox="94 147 800 500" style="enable-background:new 94 147 800 500;" xml:space="preserve">
<style type="text/css">
	.st0{fill:#4B4B4B;}
	.st1{fill:#FFFFFF;}
	.st2{stroke:#FAE849;}
</style>
<defs  xmlns="http://www.w3.org/1999/xhtml">
	<style  type="text/css">
		<![CDATA[]]>
	</style>
</defs>
<rect x="94" y="147" class="st0" width="800" height="500"/>
<polygon points="914,147 913.9,148.7 913.7,150.5 913.4,152.2 913,154 912.4,155.7 911.7,157.5 910.9,159.2 909.9,160.9 
	908.8,162.6 907.6,164.4 906.3,492.9 904.8,499.9 903.2,506.4 901.5,514.2 899.7,520.6 897.7,525.7 895.6,529.8 893.4,531.1 
	891.1,531.7 888.7,532.7 886.1,532 883.4,528.4 880.6,525.7 877.7,525 874.6,525.8 871.5,527.8 868.2,528.4 864.8,528.5 
	861.3,527.4 857.7,526.7 854,529.4 850.2,533.3 846.2,539 842.2,543 838,547.7 833.8,552.4 829.4,551.2 825,546.6 820.4,542.5 
	815.7,540.4 811,541.6 806.1,545.8 801.2,548.8 796.1,548.9 791,549.1 785.8,551.3 780.4,555 775,557.6 769.5,558.3 764,558.5 
	758.3,558.6 752.6,558.7 746.8,558.4 740.9,557.2 734.9,554.3 728.9,548.8 722.7,543.3 716.6,537.6 710.3,533.5 704,529.1 
	697.6,523.4 691.2,516.2 684.7,506.9 678.1,496.2 671.5,487.7 664.8,481.8 658.1,475.2 651.3,470.5 644.5,467.2 637.6,464.9 
	630.7,464.2 623.8,463.7 616.8,461.6 609.8,458.3 602.7,456.1 595.6,453.4 588.5,449.5 581.3,445.3 574.1,441 566.9,439.2 
	559.7,441.3 552.5,444.6 545.2,448.7 537.9,453.5 530.6,460.3 523.3,464.9 516,470.7 508.7,475.7 501.3,480.2 494,487.9 486.7,496 
	479.3,501.1 472,502.6 464.7,500.7 457.4,496.1 450.1,491.3 442.8,486.7 435.5,482.6 428.3,480.2 421.1,481.7 413.9,484.8 
	406.7,490.2 399.5,495.6 392.4,504.3 385.3,513.8 378.2,519.1 371.2,522 364.2,523.2 357.3,527.6 350.4,533.3 343.5,539.7 
	336.7,546.1 329.9,553.7 323.2,563.9 316.5,572.1 309.9,576.6 303.3,581.2 296.8,586.7 290.4,593.3 284,597.4 277.7,601.2 
	271.4,605.4 265.3,610.7 259.1,615.9 253.1,620.2 247.1,623.6 241.2,626.2 235.4,629.6 229.7,632 224,631.4 218.5,629 213,625.8 
	207.6,624.3 202.2,621 197,617.2 191.9,614.2 186.8,612.3 181.9,611.9 177,612.5 172.3,610.7 167.6,607.1 163,602.7 158.6,598 
	154.2,592.7 150,584.7 145.8,575.3 141.8,563.8 137.8,553.2 134,544.9 130.3,539.3 126.7,535.3 123.2,530.7 119.8,523.9 
	116.5,517.9 113.4,513.8 110.3,510.3 107.4,507.6 104.6,505.5 101.9,504.4 99.3,504.3 96.9,504.8 94.6,506.2 92.4,507.8 90.3,506.4 
	88.3,505.2 86.5,503.2 84.8,498.9 83.2,494.7 81.7,491.7 80.4,164.4 79.2,162.6 78.1,160.9 77.1,159.2 76.3,157.5 75.6,155.7 
	75,154 74.6,152.2 74.3,150.5 74.1,148.7 74,147 "/>
<circle class="st1" cx="873.8" cy="228.7" r="0.7"/>
<circle class="st1" cx="144" cy="373" r="0.5"/>
<circle class="st1" cx="240" cy="321.4" r="0.6"/>
<circle class="st1" cx="677.2" cy="298.1" r="0.6"/>
<circle class="st1" cx="454.7" cy="215.7" r="0.5"/>
<circle class="st1" cx="516.7" cy="197.9" r="0.6"/>
<circle class="st1" cx="673.9" cy="342.4" r="0.6"/>
<circle class="st1" cx="637" cy="222.1" r="0.5"/>
<circle class="st1" cx="353.1" cy="329.3" r="0.4"/>
<circle class="st1" cx="695.7" cy="318.3" r="0.6"/>
<circle class="st1" cx="207.9" cy="212.9" r="0.4"/>
<circle class="st1" cx="715.1" cy="394.7" r="0.4"/>
<circle class="st1" cx="553.1" cy="389.3" r="0.6"/>
<circle class="st1" cx="459.1" cy="322.8" r="0.4"/>
<circle class="st1" cx="735.1" cy="372" r="0.6"/>
<circle class="st1" cx="540.7" cy="242.4" r="0.4"/>
<circle class="st1" cx="849.6" cy="362.9" r="0.6"/>
<circle class="st1" cx="872.6" cy="333.8" r="0.4"/>
<circle class="st1" cx="122.5" cy="350.6" r="0.5"/>
<circle class="st1" cx="232.7" cy="321.4" r="0.5"/>
<circle class="st1" cx="420.3" cy="291" r="0.6"/>
<circle class="st1" cx="160.4" cy="302.5" r="0.7"/>
<circle class="st1" cx="840.2" cy="287.9" r="0.7"/>
<circle class="st1" cx="386.9" cy="385.5" r="0.4"/>
<circle class="st1" cx="217.8" cy="227.2" r="0.7"/>
<circle class="st1" cx="212.5" cy="318.1" r="0.6"/>
<circle class="st1" cx="153.5" cy="308.1" r="0.6"/>
<circle class="st1" cx="602.5" cy="205.5" r="0.7"/>
<circle class="st1" cx="377" cy="318.6" r="0.5"/>
<circle class="st1" cx="776.9" cy="351.8" r="0.6"/>
<circle class="st1" cx="392.8" cy="392.5" r="0.5"/>
<circle class="st1" cx="136.1" cy="232.8" r="0.5"/>
<circle class="st1" cx="237.7" cy="299.4" r="0.4"/>
<circle class="st1" cx="390.4" cy="342.7" r="0.5"/>
<circle class="st1" cx="352.4" cy="199.4" r="0.6"/>
<circle class="st1" cx="269" cy="316.1" r="0.7"/>
<circle class="st1" cx="594.7" cy="265.6" r="0.7"/>
<circle class="st1" cx="891.7" cy="389.4" r="0.7"/>
<circle class="st1" cx="393.6" cy="224" r="0.6"/>
<circle class="st1" cx="689.9" cy="298.9" r="0.6"/>
<circle class="st1" cx="263.3" cy="385.3" r="0.6"/>
<circle class="st1" cx="676.9" cy="269" r="0.6"/>
<circle class="st1" cx="260.9" cy="235.6" r="0.4"/>
<circle class="st1" cx="447.6" cy="199.9" r="0.5"/>
<circle class="st1" cx="173.7" cy="370.6" r="0.5"/>
<circle class="st1" cx="139.5" cy="292.6" r="0.6"/>
<circle class="st1" cx="257.8" cy="222.8" r="0.7"/>
<circle class="st1" cx="552.6" cy="316.4" r="0.5"/>
<circle class="st1" cx="178.3" cy="373.9" r="0.5"/>
<circle class="st1" cx="613.9" cy="241.7" r="0.6"/>
<circle class="st1" cx="424" cy="343.6" r="0.5"/>
<circle class="st1" cx="662.2" cy="234" r="0.6"/>
<circle class="st1" cx="773.5" cy="383" r="0.6"/>
<circle class="st1" cx="632" cy="222.2" r="0.4"/>
<circle class="st1" cx="185" cy="321.6" r="0.5"/>
<circle class="st1" cx="684.7" cy="279.9" r="0.6"/>
<circle class="st1" cx="399.2" cy="318.8" r="0.6"/>
<circle class="st1" cx="687.3" cy="315" r="0.5"/>
<circle class="st1" cx="303.7" cy="341.5" r="0.7"/>
<circle class="st1" cx="724.5" cy="231.1" r="0.5"/>
<circle class="st1" cx="509.5" cy="346.1" r="0.7"/>
<circle class="st1" cx="675.5" cy="365.6" r="0.5"/>
<circle class="st1" cx="127.5" cy="224" r="0.5"/>
<circle class="st1" cx="420.6" cy="236.3" r="0.7"/>
<circle class="st1" cx="651.3" cy="306.9" r="0.6"/>
<circle class="st1" cx="436.9" cy="335.7" r="0.6"/>
<circle class="st1" cx="166.3" cy="210.2" r="0.6"/>
<circle class="st1" cx="819.7" cy="370.5" r="0.6"/>
<circle class="st1" cx="578" cy="262.4" r="0.6"/>
<circle class="st1" cx="498.1" cy="344.1" r="0.6"/>
<circle class="st1" cx="711" cy="216.8" r="0.5"/>
<circle class="st1" cx="552.6" cy="242.7" r="0.5"/>
<circle class="st1" cx="271.2" cy="355.1" r="0.5"/>
<circle class="st1" cx="421.2" cy="371" r="0.7"/>
<circle class="st1" cx="126.2" cy="354" r="0.6"/>
<circle class="st1" cx="574.7" cy="391.3" r="0.6"/>
<circle class="st1" cx="755.3" cy="305.6" r="0.6"/>
<circle class="st1" cx="783.8" cy="238.2" r="0.6"/>
<circle class="st1" cx="587.1" cy="334.5" r="0.5"/>
<circle class="st1" cx="352.2" cy="287.5" r="0.6"/>
<circle class="st2" cx="824" cy="197" r="30"/>
<polygon points="1214,147 1212.2,149.8 1207,152.6 1198.3,167.2 1186.1,169.3 1170.6,173.6 1151.8,174.2 1129.7,172.3 1104.6,173.9 
	1076.5,181.3 1045.6,183.6 1011.9,185.4 975.8,186.5 937.3,186.8 896.6,188.2 854,184.3 809.6,187.1 763.7,193 716.5,192.4 
	668.2,190.8 619,191.9 569.3,197 519.1,196.5 468.9,194.5 418.7,196.7 369,198.3 319.8,198.2 271.5,197.1 224.3,197.7 178.4,192.7 
	134,188.2 91.4,183.4 50.7,182.7 12.2,181.7 -23.9,179.6 -57.6,177.7 -88.5,177.3 -116.6,173.5 -141.7,173 -163.8,172.2 
	-182.6,165.6 -198.1,163.4 -210.3,164.2 -219,152.6 -224.2,149.8 -226,147 "/>
</svg>
